<svg xmlns="http://www.w3.org/2000/svg" xmlns:xlink="http://www.w3.org/1999/xlink" width="212" height="212" viewBox="0 0 212 212" version="1.1"><title>coffee</title><desc>Created with Sketch.</desc><g id="coffee" stroke="none" stroke-width="1" fill="none" fill-rule="evenodd"><g id="Group" transform="translate(21.000000, 23.000000)"><path d="M43.7868625,1.02468595 L107.741079,17.007891 C109.210253,17.3750616 110.240964,18.6950642 110.240964,20.2094243 L110.240964,41.8836735 C110.240964,43.7062131 108.763504,45.1836735 106.940964,45.1836735 L42.986747,45.1836735 C41.1642073,45.1836735 39.686747,43.7062131 39.686747,41.8836735 L39.686747,4.2262192 C39.686747,2.40367952 41.1642073,0.926219197 42.986747,0.926219197 C43.256474,0.926219197 43.5251837,0.959288133 43.7868625,1.02468595 Z" id="Rectangle-2" fill="#423E3E"/><path d="M109.119277,27.5510204 L149.946988,27.5510204 C154.807094,27.5510204 158.746988,31.4909146 158.746988,36.3510204 L158.746988,42.9959184 C158.746988,47.8560242 154.807094,51.7959184 149.946988,51.7959184 L109.119277,51.7959184 C104.259171,51.7959184 100.319277,47.8560242 100.319277,42.9959184 L100.319277,36.3510204 C100.319277,31.4909146 104.259171,27.5510204 109.119277,27.5510204 Z" id="Rectangle-3" fill="#4B4B4B" transform="translate(129.477582, 39.445370) rotate(-360.000000) translate(-129.477582, -39.445370)"/><rect id="Rectangle-123" fill="#BBF2FF" x="0" y="50.6938776" width="151.03012" height="111.306122" rx="55.6530612"/><path d="M140.006024,106.814286 L140.006024,106.981633 C140.006024,131.889675 119.814066,152.081633 94.9060241,152.081633 L55.0216867,152.081633 C30.1136445,152.081633 9.92168675,131.889675 9.92168675,106.981633 L9.92168675,106.814286 C9.92168675,101.837112 10.7279277,97.0482458 12.216933,92.571164 L137.710778,92.571164 C139.199783,97.0482458 140.006024,101.837112 140.006024,106.814286 Z" id="Combined-Shape" fill="#743D00"/><path d="M137.023906,49.6929314 L184.527309,49.6929314 C189.387415,49.6929314 193.327309,53.6328256 193.327309,58.4929314 L193.327309,58.5255845 C193.327309,63.3856903 189.387415,67.3255845 184.527309,67.3255845 L137.023906,67.3255845 C132.1638,67.3255845 128.223906,63.3856903 128.223906,58.5255845 L128.223906,58.4929314 C128.223906,53.6328256 132.1638,49.6929314 137.023906,49.6929314 Z" id="Rectangle-3-Copy" fill="#4B4B4B" transform="translate(160.775608, 58.509258) scale(-1, 1) rotate(-66.000000) translate(-160.775608, -58.509258)"/><rect id="Rectangle" fill="#4B4B4B" x="23.1506024" y="27.5510204" width="104.728916" height="30.8571429" rx="5.5"/><rect id="Rectangle-125" fill="#777777" x="37.4819277" y="32" width="19.8433735" height="22" rx="4.4"/><rect id="Rectangle-5" fill="#93D0DE" x="44.0963855" y="77.1428571" width="26.4578313" height="7.71428571" rx="3.85714286"/><rect id="Rectangle-5" fill="#502A00" x="44.0963855" y="101.387755" width="26.4578313" height="7.71428571" rx="3.85714286"/><rect id="Rectangle-5" fill="#502A00" x="44.0963855" y="124.530612" width="26.4578313" height="7.71428571" rx="3.85714286"/></g></g></svg>