<svg xmlns:xlink="http://www.w3.org/1999/xlink" xmlns="http://www.w3.org/2000/svg" viewBox="0 0 146 147" fill="none" width="146"  height="147" ><path opacity="0.3" fill-rule="evenodd" clip-rule="evenodd" d="M5.24114 137.389H140.759C143.327 137.389 145.5 139.55 145.5 142.105C145.5 144.659 143.327 146.821 140.759 146.821H5.24114C2.67302 146.821 0.5 144.659 0.5 142.105C0.5 139.55 2.67302 137.389 5.24114 137.389Z" fill="#AFAFAF"/><path fill-rule="evenodd" clip-rule="evenodd" d="M13.3405 124.616H46.9236C50.4795 124.616 53.4427 127.564 53.4427 131.101C53.4427 134.638 50.4795 137.585 46.9236 137.585H13.3405C9.78463 137.585 6.82141 134.638 6.82141 131.101C6.82141 127.564 9.78463 124.616 13.3405 124.616Z" fill="#58CC02"/><path fill-rule="evenodd" clip-rule="evenodd" d="M99.4713 124.616H133.054C136.61 124.616 139.574 127.564 139.574 131.101C139.574 134.638 136.61 137.585 133.054 137.585H99.4713C95.9155 137.585 92.9523 134.638 92.9523 131.101C92.9523 127.564 95.7179 124.616 99.4713 124.616Z" fill="#58CC02"/><path fill-rule="evenodd" clip-rule="evenodd" d="M132.857 137.389V21.0604C132.857 18.3094 132.264 15.5583 131.276 13.0038C126.733 2.7858 114.88 -1.93022 104.41 2.5893C89.3963 9.07382 78.9263 12.4143 73.1974 12.4143C67.4686 12.4143 56.801 9.07382 41.5898 2.5893C39.0217 1.4103 36.256 1.01729 33.4904 1.01729C22.2301 1.01729 13.1429 10.0563 13.1429 21.2569V137.782H132.857V137.389Z" fill="#58CC02"/><path d="M93.7426 101.822H78.729C77.9388 101.822 77.3462 102.608 77.5437 103.394C78.729 106.931 82.2849 109.289 86.2358 109.289C90.1868 109.289 93.7426 106.931 94.9279 103.394C95.1255 102.608 94.5328 101.822 93.7426 101.822ZM68.6541 103.394C68.8516 102.608 68.259 101.822 67.4688 101.822H52.4551C51.6649 101.822 51.0723 102.608 51.2699 103.394C52.4551 106.931 56.011 109.289 59.962 109.289C63.9129 109.289 67.4688 106.931 68.6541 103.394ZM80.7045 114.595H65.4933C64.7031 114.595 64.1105 115.381 64.308 116.167C65.4933 119.704 69.0492 122.062 73.0001 122.062C76.9511 122.062 80.5069 119.704 81.6922 116.167C82.0873 115.381 81.4947 114.595 80.7045 114.595Z" fill="#89E219"/><path fill-rule="evenodd" clip-rule="evenodd" d="M23.0203 114.791C26.1811 111.844 31.1198 112.04 33.8854 115.184L42.5775 124.42C45.5408 127.564 45.3432 132.476 42.1824 135.227C39.0217 138.175 34.083 137.978 31.3173 134.834L22.6252 125.599C19.8596 122.651 20.0571 117.739 23.0203 114.791Z" fill="#F49000"/><path fill-rule="evenodd" clip-rule="evenodd" d="M122.979 114.791C119.819 111.844 114.88 112.04 112.114 115.184L103.422 124.42C100.459 127.564 100.657 132.476 103.817 135.227C106.978 138.175 111.917 137.978 114.682 134.834L123.375 125.599C126.338 122.651 126.14 117.739 122.979 114.791Z" fill="#F49000"/><path d="M46.7262 13.2003L64.7031 32.6539C65.6908 33.6364 65.2957 35.4049 63.9129 35.9944C57.5913 38.7454 50.2821 37.3699 45.5409 32.2609C40.7998 27.1519 40.2071 19.6848 43.5654 13.7898C44.5532 12.2178 45.7385 12.0213 46.7262 13.2003Z" fill="#89E219"/><path fill-rule="evenodd" clip-rule="evenodd" d="M61.5421 29.1169C67.4685 35.798 78.5312 35.798 84.4577 29.1169C84.4577 44.837 84.4577 68.2206 84.4577 68.0241C84.4577 68.0241 76.7533 68.0241 61.5421 68.0241C61.5421 56.627 61.5421 43.658 61.5421 29.1169Z" fill="#89E219"/><path d="M37.6389 17.9164L55.2206 37.3699C56.2084 38.3525 55.8133 40.121 54.4304 40.7105C48.1089 43.4615 40.7996 42.086 36.0585 36.9769C31.3174 31.8679 30.7247 24.4009 34.083 18.5059C35.0708 16.9339 36.8487 16.7374 37.6389 17.9164Z" fill="#89E219"/><path fill-rule="evenodd" clip-rule="evenodd" d="M43.7629 22.0427H45.1457C57.5912 22.0427 67.6661 32.0643 67.6661 44.4438V59.3778C67.6661 71.7574 57.5912 81.7789 45.1457 81.7789H43.7629C31.3174 81.7789 21.2424 71.7574 21.2424 59.3778V44.4438C21.2424 32.0643 31.3174 22.0427 43.7629 22.0427Z" fill="#89E219"/><path d="M99.0761 13.2003L81.4944 32.6539C80.5066 33.6364 80.9017 35.4049 82.2846 35.9944C88.6061 38.7454 95.9153 37.3699 100.656 32.2609C105.398 27.1519 105.99 19.6848 102.632 13.7898C101.842 12.2178 100.064 12.0213 99.0761 13.2003Z" fill="#89E219"/><path d="M107.966 17.9164L90.384 37.3699C89.3963 38.3525 89.7914 40.121 91.1742 40.7105C97.4957 43.4615 104.805 42.086 109.546 36.9769C114.287 31.8679 114.88 24.4009 111.522 18.5059C110.731 16.9339 108.953 16.7374 107.966 17.9164Z" fill="#89E219"/><path fill-rule="evenodd" clip-rule="evenodd" d="M101.447 21.4534H102.83C115.275 21.4534 125.35 31.4749 125.35 43.8544V58.7885C125.35 71.168 115.275 81.1896 102.83 81.1896H101.644C89.1987 81.1896 79.1238 71.168 79.1238 58.985L78.9263 44.0509C78.9263 31.6714 88.8036 21.6499 101.447 21.4534Z" fill="#89E219"/><path fill-rule="evenodd" clip-rule="evenodd" d="M101.898 30.0779C110.985 30.0779 118.295 37.3484 118.295 46.3874V57.195C118.295 66.234 110.985 73.5045 101.898 73.5045C92.811 73.5045 85.5017 66.234 85.5017 57.195V46.3874C85.5017 37.3484 92.811 30.0779 101.898 30.0779Z" fill="white"/><path fill-rule="evenodd" clip-rule="evenodd" d="M101.898 34.2043C109.405 34.2043 115.529 40.2959 115.529 47.7629V56.6054C115.529 64.0724 109.405 70.164 101.898 70.164C94.3914 70.164 88.2675 64.0724 88.2675 56.6054V47.7629C88.2675 40.2959 94.3914 34.2043 101.898 34.2043Z" fill="#122431"/><path d="M95.5768 54.2475C100.159 54.2475 103.874 50.5525 103.874 45.9945C103.874 41.4365 100.159 37.7415 95.5768 37.7415C90.9945 37.7415 87.2798 41.4365 87.2798 45.9945C87.2798 50.5525 90.9945 54.2475 95.5768 54.2475Z" fill="white"/><path fill-rule="evenodd" clip-rule="evenodd" d="M118.295 54.6404C117.307 53.0684 115.529 51.8894 113.356 51.8894C110.195 51.8894 107.43 54.6404 107.43 57.7844C107.43 60.9284 109.998 63.6794 113.356 63.6794C114.936 63.6794 116.517 62.8934 117.505 61.9109C117.9 60.3389 118.295 58.7669 118.295 56.9984V54.6404Z" fill="white"/><path opacity="0.7238" fill-rule="evenodd" clip-rule="evenodd" d="M117.739 61.4376C115.872 68.4048 109.509 73.5045 101.898 73.5045C94.1058 73.5045 87.6208 68.1584 85.9309 60.9354C87.2504 59.9869 88.9782 59.553 91.0331 59.553C92.811 59.553 94.1939 60.1425 96.1694 61.125C98.5399 62.304 101.701 63.6795 105.257 63.483C110.195 63.483 112.763 62.697 113.949 61.911C115.127 61.2076 116.517 61.0638 117.739 61.4376Z" fill="#34A9FF"/><path fill-rule="evenodd" clip-rule="evenodd" d="M43.2433 30.0779C52.3305 30.0779 59.6397 37.3484 59.6397 46.3874V57.195C59.6397 66.234 52.3305 73.5045 43.2433 73.5045C34.1561 73.5045 26.8468 66.234 26.8468 57.195V46.3874C26.8468 37.3484 34.1561 30.0779 43.2433 30.0779Z" fill="white"/><path fill-rule="evenodd" clip-rule="evenodd" d="M43.2433 34.2043C50.7502 34.2043 56.8741 40.2959 56.8741 47.7629V56.6054C56.8741 64.0724 50.7502 70.164 43.2433 70.164C35.7365 70.164 29.6125 64.0724 29.6125 56.6054V47.7629C29.6125 40.2959 35.7365 34.2043 43.2433 34.2043Z" fill="#122431"/><path d="M36.9219 54.2475C41.5042 54.2475 45.2189 50.5525 45.2189 45.9945C45.2189 41.4365 41.5042 37.7415 36.9219 37.7415C32.3396 37.7415 28.6249 41.4365 28.6249 45.9945C28.6249 50.5525 32.3396 54.2475 36.9219 54.2475Z" fill="white"/><path fill-rule="evenodd" clip-rule="evenodd" d="M59.6398 54.6404C58.652 53.0684 56.8741 51.8894 54.7011 51.8894C51.5403 51.8894 48.7747 54.6404 48.7747 57.7844C48.7747 60.9284 51.3428 63.6794 54.7011 63.6794C56.2815 63.6794 57.8619 62.8934 58.8496 61.9109C59.2447 60.3389 59.6398 58.7669 59.6398 56.9984V54.6404Z" fill="white"/><path opacity="0.7238" fill-rule="evenodd" clip-rule="evenodd" d="M59.247 60.7758C57.6158 68.0796 51.0928 73.5046 43.2433 73.5046C35.7833 73.5046 29.5216 68.6048 27.5182 61.8492C28.8688 61.2288 30.4214 61.2934 31.7855 62.1075C32.9708 62.8935 35.5389 63.6795 40.4776 63.6795C43.9379 63.6795 46.7267 62.5104 48.9986 61.558C49.191 61.4773 49.3797 61.3982 49.5648 61.3215C49.9771 61.1575 50.3636 60.9934 50.7332 60.8365C52.1347 60.2417 53.2942 59.7495 54.701 59.7495C56.4787 59.7495 58.0115 60.0742 59.247 60.7758Z" fill="#34A9FF"/><path d="M78.5312 82.1721C77.9385 82.1721 77.3459 81.9756 76.9508 81.5826L73.3949 77.6525L69.8391 81.3861C69.0489 82.1721 67.666 82.1721 66.8758 81.3861C66.0857 80.6 66.0857 79.2245 66.8758 78.4385L71.0244 74.1155C71.617 73.526 72.6047 73.133 73.5925 72.9365C74.5802 72.9365 75.3704 73.3295 76.1606 73.919L80.3091 78.242C81.0993 79.028 81.0993 80.4036 80.3091 81.1896C79.5189 81.9756 78.9263 82.1721 78.5312 82.1721Z" fill="#3EBE00"/><path d="M61.5421 62.1291C62.5299 57.0201 67.0734 52.8936 73.1974 52.8936C78.7288 52.8936 83.6674 56.8236 84.6552 62.1291V63.3081C84.6552 64.2906 83.865 65.2731 82.6797 65.2731C82.2846 65.2731 82.0871 65.2731 81.692 65.0766C78.7288 63.5046 75.7655 62.5221 72.8023 62.5221C69.8391 62.5221 67.0734 63.3081 64.3078 64.8801C63.32 65.4696 62.3323 65.0766 61.7397 64.0941C61.7397 63.8976 61.5421 63.5046 61.5421 63.3081V62.1291Z" fill="#FFC200"/><path d="M75.1728 57.806C74.9753 57.806 74.7777 57.806 74.5802 57.6095C73.1973 57.2165 72.0121 57.02 70.6292 57.6095C69.839 58.0025 68.8513 57.413 68.4562 56.627C68.0611 55.841 68.6538 54.8585 69.4439 54.4655C71.617 53.6795 73.5924 53.6795 75.7655 54.4655C76.5557 54.8585 77.1483 55.841 76.7532 56.627C76.5557 57.413 75.963 57.806 75.1728 57.806Z" fill="#FFDE00"/><path d="M68.6539 69.9892C67.271 69.9892 65.8882 69.2032 65.098 68.0242C63.9127 66.0592 64.5054 63.5047 66.4809 62.1292C71.0245 59.3782 75.7656 59.3782 80.1116 62.3257C82.0871 63.7012 82.4822 66.2557 81.2969 68.2207C79.9141 70.1857 77.346 70.5787 75.3705 69.3997C74.1852 68.6137 72.9999 68.2207 71.0245 69.5962C70.2343 69.7927 69.4441 69.9892 68.6539 69.9892Z" fill="#F49000"/></svg>