<svg xmlns:xlink="http://www.w3.org/1999/xlink" xmlns="http://www.w3.org/2000/svg" viewBox="0 0 700 301" fill="none" width="700"  height="301" ><path fill-rule="evenodd" clip-rule="evenodd" d="M365.962 155.063C360.173 157.524 357.493 164.231 359.953 170.018L383.58 225.698C386.04 231.485 392.746 234.163 398.534 231.702C404.323 229.24 407.003 222.533 404.543 216.746L380.916 161.066C378.456 155.279 371.75 152.601 365.962 155.063Z" fill="#C6775C"/><path fill-rule="evenodd" clip-rule="evenodd" d="M384.877 209.96L376.822 217.737C373.978 220.56 373.898 225.139 376.643 227.981L384.419 236.112C387.241 239.034 391.82 239.113 394.664 236.291L402.718 228.513C405.562 225.691 405.642 221.112 402.897 218.269L395.12 210.216C392.376 207.296 387.797 207.216 384.877 209.96Z" fill="#C6775C"/><path fill-rule="evenodd" clip-rule="evenodd" d="M353.383 138.565L351.037 139.841C343.507 143.843 340.629 153.264 344.622 160.87L369.592 207.805C373.584 215.411 383.006 218.288 390.546 214.209L392.892 212.933C400.422 208.931 403.3 199.509 399.307 191.903L374.337 144.969C370.345 137.362 360.999 134.495 353.383 138.565C353.393 138.488 353.393 138.488 353.383 138.565Z" fill="#D83867"/><path fill-rule="evenodd" clip-rule="evenodd" d="M287.534 154.922C293.363 157.281 296.159 163.94 293.8 169.769L271.138 225.856C268.778 231.685 262.119 234.48 256.289 232.121C250.459 229.762 247.663 223.103 250.023 217.273L272.685 161.187C275.044 155.358 281.704 152.562 287.534 154.922Z" fill="#C6775C"/><path fill-rule="evenodd" clip-rule="evenodd" d="M269.501 210.147L277.771 217.858C280.664 220.63 280.823 225.207 278.128 228.097L270.492 236.285C267.722 239.255 263.145 239.415 260.252 236.642L252.063 229.007C249.17 226.234 249.01 221.658 251.705 218.768L259.342 210.58C261.957 207.615 266.611 207.453 269.501 210.147Z" fill="#C6775C"/><path fill-rule="evenodd" clip-rule="evenodd" d="M299.806 138.174L302.175 139.409C309.773 143.279 312.815 152.649 308.955 160.323L284.807 207.686C280.948 215.361 271.577 218.402 263.968 214.455L261.599 213.22C254.001 209.351 250.959 199.981 254.819 192.306L278.89 144.954C282.76 137.356 292.131 134.315 299.806 138.174Z" fill="#D83867"/><path fill-rule="evenodd" clip-rule="evenodd" d="M314.762 195.592H339.136C340.067 195.592 340.766 196.368 340.766 197.221V281.122C340.766 282.054 339.99 282.752 339.136 282.752H314.685C313.753 282.752 313.055 281.976 313.055 281.122V197.221C313.055 196.368 313.831 195.592 314.762 195.592Z" fill="#1C5D88"/><path fill-rule="evenodd" clip-rule="evenodd" d="M324.176 118.589H329.066C357.631 118.589 380.763 141.718 380.763 170.28C380.763 198.842 357.631 221.971 329.066 221.971H324.176C295.611 221.971 272.479 198.842 272.479 170.28C272.479 141.718 295.611 118.589 324.176 118.589Z" fill="#D83867"/><mask id="mask0" mask-type="alpha" maskUnits="userSpaceOnUse" x="272" y="118" width="109" height="104"><path fill-rule="evenodd" clip-rule="evenodd" d="M324.176 118.589H329.066C357.631 118.589 380.763 141.718 380.763 170.28C380.763 198.842 357.631 221.971 329.066 221.971H324.176C295.611 221.971 272.479 198.842 272.479 170.28C272.479 141.718 295.611 118.589 324.176 118.589Z" fill="white"/></mask><g mask="url(#mask0)"><path d="M388.164 194.703H263.664L263.66 230.095H388.16L388.164 194.703Z" fill="#1C5D88" stroke="#979797" stroke-width="1.2"/></g><mask id="mask1" mask-type="alpha" maskUnits="userSpaceOnUse" x="272" y="118" width="109" height="104"><path fill-rule="evenodd" clip-rule="evenodd" d="M324.176 118.589H329.066C357.631 118.589 380.763 141.718 380.763 170.28C380.763 198.842 357.631 221.971 329.066 221.971H324.176C295.611 221.971 272.479 198.842 272.479 170.28C272.479 141.718 295.611 118.589 324.176 118.589Z" fill="white"/></mask><g mask="url(#mask1)"><path d="M388.888 187.301H263.456L263.455 198.865H388.887L388.888 187.301Z" fill="#D78254"/></g><mask id="mask2" mask-type="alpha" maskUnits="userSpaceOnUse" x="272" y="118" width="109" height="104"><path fill-rule="evenodd" clip-rule="evenodd" d="M324.176 118.589H329.066C357.631 118.589 380.763 141.718 380.763 170.28C380.763 198.842 357.631 221.971 329.066 221.971H324.176C295.611 221.971 272.479 198.842 272.479 170.28C272.479 141.718 295.611 118.589 324.176 118.589Z" fill="white"/></mask><g mask="url(#mask2)"><path d="M301.426 187.345H295.45L295.449 199.531H301.425L301.426 187.345Z" fill="#1C5D88"/></g><mask id="mask3" mask-type="alpha" maskUnits="userSpaceOnUse" x="272" y="118" width="109" height="104"><path fill-rule="evenodd" clip-rule="evenodd" d="M324.176 118.589H329.066C357.631 118.589 380.763 141.718 380.763 170.28C380.763 198.842 357.631 221.971 329.066 221.971H324.176C295.611 221.971 272.479 198.842 272.479 170.28C272.479 141.718 295.611 118.589 324.176 118.589Z" fill="white"/></mask><g mask="url(#mask3)"><path d="M359.866 187.341H353.89L353.889 199.526H359.865L359.866 187.341Z" fill="#1C5D88"/></g><mask id="mask4" mask-type="alpha" maskUnits="userSpaceOnUse" x="272" y="118" width="109" height="104"><path fill-rule="evenodd" clip-rule="evenodd" d="M324.176 118.589H329.066C357.631 118.589 380.763 141.718 380.763 170.28C380.763 198.842 357.631 221.971 329.066 221.971H324.176C295.611 221.971 272.479 198.842 272.479 170.28C272.479 141.718 295.611 118.589 324.176 118.589Z" fill="white"/></mask><g mask="url(#mask4)"><path fill-rule="evenodd" clip-rule="evenodd" d="M318.277 187.278H336.44C336.828 187.278 337.139 187.588 337.139 187.976V198.221C337.139 198.609 336.828 198.92 336.44 198.92H318.277C317.889 198.92 317.578 198.609 317.578 198.221V187.976C317.578 187.588 317.889 187.278 318.277 187.278Z" fill="#DBDADA"/></g><mask id="mask5" mask-type="alpha" maskUnits="userSpaceOnUse" x="272" y="118" width="109" height="104"><path fill-rule="evenodd" clip-rule="evenodd" d="M324.176 118.589H329.066C357.631 118.589 380.763 141.718 380.763 170.28C380.763 198.842 357.631 221.971 329.066 221.971H324.176C295.611 221.971 272.479 198.842 272.479 170.28C272.479 141.718 295.611 118.589 324.176 118.589Z" fill="white"/></mask><g mask="url(#mask5)"><path d="M301.458 144.685L306.969 150.273L312.558 144.685" stroke="#C52F5B" stroke-width="6.3644" stroke-linecap="round" stroke-linejoin="round"/><path d="M301.458 158.888L306.969 164.476L312.558 158.888" stroke="#C52F5B" stroke-width="6.3644" stroke-linecap="round" stroke-linejoin="round"/><path d="M340.813 144.685L346.402 150.273L351.913 144.685" stroke="#C52F5B" stroke-width="6.3644" stroke-linecap="round" stroke-linejoin="round"/><path d="M340.813 158.888L346.402 164.476L351.913 158.888" stroke="#C52F5B" stroke-width="6.3644" stroke-linecap="round" stroke-linejoin="round"/><path d="M321.718 144.685L327.307 150.273L332.818 144.685" stroke="#C52F5B" stroke-width="6.3644" stroke-linecap="round" stroke-linejoin="round"/><path d="M321.718 158.888L327.307 164.476L332.818 158.888" stroke="#C52F5B" stroke-width="6.3644" stroke-linecap="round" stroke-linejoin="round"/></g><path fill-rule="evenodd" clip-rule="evenodd" d="M307.466 281.122H347.053C350.003 281.122 352.332 283.451 352.332 286.4C352.332 289.349 350.003 291.678 347.053 291.678H307.466C304.516 291.678 302.188 289.349 302.188 286.4C302.188 283.528 304.594 281.122 307.466 281.122Z" fill="#3D3D3D"/><path d="M346.446 4.88774C326.159 -5.89935 300.967 1.80043 290.179 22.0857C279.39 42.3709 287.091 67.56 307.378 78.3471C327.666 89.1342 352.858 81.4345 363.646 61.1492C374.434 40.864 366.733 15.6748 346.446 4.88774Z" fill="#1C5D88"/><mask id="mask6" mask-type="alpha" maskUnits="userSpaceOnUse" x="285" y="0" width="84" height="84"><path d="M346.446 4.88774C326.159 -5.89935 300.967 1.80043 290.179 22.0857C279.39 42.3709 287.091 67.56 307.378 78.3471C327.666 89.1342 352.858 81.4345 363.646 61.1492C374.434 40.864 366.733 15.6748 346.446 4.88774Z" fill="white"/></mask><g mask="url(#mask6)"><path d="M318.379 41.2948L357.345 12.1895" stroke="black" stroke-opacity="0.2085" stroke-width="5.5306" stroke-linecap="square"/></g><path fill-rule="evenodd" clip-rule="evenodd" d="M309.562 44.7739L327.105 32.0452L344.415 44.7739C350.237 49.0427 353.652 55.7951 353.652 63.0132V121.922H300.17V63.0908C300.248 55.8727 303.663 49.0427 309.562 44.7739Z" fill="#C6775C"/><mask id="mask7" mask-type="alpha" maskUnits="userSpaceOnUse" x="300" y="32" width="54" height="90"><path fill-rule="evenodd" clip-rule="evenodd" d="M309.562 44.7739L327.105 32.0452L344.415 44.7739C350.237 49.0427 353.652 55.7951 353.652 63.0132V121.922H300.17V63.0908C300.248 55.8727 303.663 49.0427 309.562 44.7739Z" fill="white"/></mask><g mask="url(#mask7)"><path fill-rule="evenodd" clip-rule="evenodd" d="M336.02 47.5703C340.134 47.5703 343.472 50.9077 343.472 55.0213V60.9976C343.472 65.1111 340.134 68.4485 336.02 68.4485C331.906 68.4485 328.568 65.1111 328.568 60.9976V55.0213C328.646 50.9077 331.906 47.5703 336.02 47.5703Z" fill="white"/><path fill-rule="evenodd" clip-rule="evenodd" d="M316.537 47.5703C312.423 47.5703 309.085 50.9077 309.085 55.0213V60.9976C309.085 65.1111 312.423 68.4485 316.537 68.4485C320.651 68.4485 323.989 65.1111 323.989 60.9976V55.0213C323.989 50.9077 320.651 47.5703 316.537 47.5703Z" fill="white"/><path fill-rule="evenodd" clip-rule="evenodd" d="M317.856 52.8481C316.149 52.8481 314.752 54.2452 314.752 55.9527V59.911C314.752 61.6186 316.149 63.0156 317.856 63.0156C319.564 63.0156 320.961 61.6186 320.961 59.911V55.9527C321.039 54.2452 319.642 52.8481 317.856 52.8481Z" fill="#4B4B4B"/><path fill-rule="evenodd" clip-rule="evenodd" d="M334.623 53.1584C332.915 53.1584 331.518 54.5555 331.518 56.263V60.2213C331.518 61.9288 332.915 63.3259 334.623 63.3259C336.33 63.3259 337.728 61.9288 337.728 60.2213V56.263C337.728 54.5555 336.33 53.1584 334.623 53.1584Z" fill="#4B4B4B"/></g><mask id="mask8" mask-type="alpha" maskUnits="userSpaceOnUse" x="300" y="32" width="54" height="90"><path fill-rule="evenodd" clip-rule="evenodd" d="M309.562 44.7739L327.105 32.0452L344.415 44.7739C350.237 49.0427 353.652 55.7951 353.652 63.0132V121.922H300.17V63.0908C300.248 55.8727 303.663 49.0427 309.562 44.7739Z" fill="white"/></mask><g mask="url(#mask8)"><path d="M307.234 68.291C313.676 69.3 318.644 71.2403 322.137 74.0344" stroke="#C6775C" stroke-width="12.3374"/></g><mask id="mask9" mask-type="alpha" maskUnits="userSpaceOnUse" x="300" y="32" width="54" height="90"><path fill-rule="evenodd" clip-rule="evenodd" d="M309.562 44.7739L327.105 32.0452L344.415 44.7739C350.237 49.0427 353.652 55.7951 353.652 63.0132V121.922H300.17V63.0908C300.248 55.8727 303.663 49.0427 309.562 44.7739Z" fill="white"/></mask><g mask="url(#mask9)"><path d="M345.269 68.291C338.826 69.3 333.858 71.2403 330.365 74.0344" stroke="#C6775C" stroke-width="12.3374"/></g><path fill-rule="evenodd" clip-rule="evenodd" d="M306.922 73.1165H345.578C355.592 73.1165 363.742 81.2659 363.742 91.2782C363.742 101.29 355.592 109.44 345.578 109.44H306.922C296.909 109.44 288.759 101.29 288.759 91.2782C288.759 81.1883 296.909 73.1165 306.922 73.1165Z" fill="#3D3D3D"/><path d="M319.162 75.2527C320.482 77.1931 321.646 77.814 323.509 77.5812C327.157 77.1931 330.418 79.832 330.806 83.4798C331.194 87.1277 328.555 90.3875 324.906 90.7756C318.153 91.4741 312.254 88.6024 308.217 82.7037C306.199 79.6767 306.976 75.5632 309.925 73.5452C313.03 71.4496 317.066 72.2258 319.162 75.2527Z" stroke="#3D3D3D" stroke-width="5.5306"/><mask id="mask10" mask-type="alpha" maskUnits="userSpaceOnUse" x="309" y="74" width="20" height="15"><path fill-rule="evenodd" clip-rule="evenodd" d="M317.377 76.4169C319.162 79.0557 321.103 79.9871 323.742 79.6767C326.226 79.4438 328.399 81.2289 328.632 83.635C328.865 86.1186 327.08 88.2918 324.674 88.5247C318.697 89.1456 313.574 86.6619 310.003 81.3842C308.606 79.3662 309.149 76.5721 311.167 75.175C313.185 73.8556 315.98 74.3989 317.377 76.4169Z" fill="white"/></mask><g mask="url(#mask10)"><path fill-rule="evenodd" clip-rule="evenodd" d="M316.445 70.7512H330.029C332.436 70.7512 334.376 72.6916 334.376 75.0976V77.5037C334.376 79.9097 332.436 81.8501 330.029 81.8501H316.445C314.039 81.8501 312.099 79.9097 312.099 77.5037V75.0976C312.099 72.6916 314.039 70.7512 316.445 70.7512Z" fill="white"/></g><mask id="mask11" mask-type="alpha" maskUnits="userSpaceOnUse" x="309" y="74" width="20" height="15"><path fill-rule="evenodd" clip-rule="evenodd" d="M317.377 76.4169C319.162 79.0557 321.103 79.9871 323.742 79.6767C326.226 79.4438 328.399 81.2289 328.632 83.635C328.865 86.1186 327.08 88.2918 324.674 88.5247C318.697 89.1456 313.574 86.6619 310.003 81.3842C308.606 79.3662 309.149 76.5721 311.167 75.175C313.185 73.8556 315.98 74.3989 317.377 76.4169Z" fill="white"/></mask><g mask="url(#mask11)"><path fill-rule="evenodd" clip-rule="evenodd" d="M316.445 80.4529H330.029C332.436 80.4529 334.376 82.3932 334.376 84.7993V87.2053C334.376 89.6114 332.436 91.5517 330.029 91.5517H316.445C314.039 91.5517 312.099 89.6114 312.099 87.2053V84.7993C312.099 82.3932 314.039 80.4529 316.445 80.4529Z" fill="white"/></g><path fill-rule="evenodd" clip-rule="evenodd" d="M323.534 68.77H328.812C330.908 68.77 332.616 70.4775 332.616 72.5731C332.616 74.6687 330.908 76.3762 328.812 76.3762H323.534C321.438 76.3762 319.73 74.6687 319.73 72.5731C319.73 70.4775 321.438 68.77 323.534 68.77Z" fill="#C6775C"/><path fill-rule="evenodd" clip-rule="evenodd" d="M299.083 119.219H354.893C356.368 119.219 357.532 120.383 357.532 121.858V124.187C357.532 125.661 356.368 126.825 354.893 126.825H299.083C297.608 126.825 296.444 125.661 296.444 124.187V121.858C296.444 120.461 297.608 119.219 299.083 119.219Z" fill="#D83867"/><path fill-rule="evenodd" clip-rule="evenodd" d="M534.196 57.166H560.277C577.742 57.166 591.947 71.3694 591.947 88.8326C591.947 106.296 577.742 120.499 560.277 120.499H534.196C516.731 120.499 502.526 106.296 502.526 88.8326C502.604 71.3694 516.731 57.166 534.196 57.166Z" fill="#FFB100"/><path fill-rule="evenodd" clip-rule="evenodd" d="M545.374 123.448H549.332C552.593 123.448 555.232 126.087 555.232 129.347V152.011C555.232 155.27 552.593 157.909 549.332 157.909H545.374C542.114 157.909 539.474 155.27 539.474 152.011V129.425C539.474 126.087 542.114 123.448 545.374 123.448Z" fill="#A66640"/><path fill-rule="evenodd" clip-rule="evenodd" d="M574.016 105.753C577.82 105.753 580.925 108.857 580.925 112.66C580.925 116.463 577.82 119.568 574.016 119.568C570.213 119.568 567.108 116.463 567.108 112.66C567.108 108.78 570.213 105.753 574.016 105.753Z" fill="#A66640"/><path fill-rule="evenodd" clip-rule="evenodd" d="M518.827 105.753C522.63 105.753 525.735 108.857 525.735 112.66C525.735 116.463 522.63 119.568 518.827 119.568C515.023 119.568 511.918 116.463 511.918 112.66C511.918 108.78 514.946 105.753 518.827 105.753Z" fill="#A66640"/><path fill-rule="evenodd" clip-rule="evenodd" d="M520.069 117.861L524.027 125.7C524.338 126.243 524.105 126.941 523.484 127.252C523.329 127.329 523.174 127.407 522.941 127.407H515.101C514.48 127.407 513.937 126.864 513.937 126.243C513.937 126.088 514.014 125.855 514.092 125.7L518.051 117.861C518.361 117.317 519.06 117.084 519.603 117.317C519.758 117.472 519.991 117.705 520.069 117.861Z" fill="#CE82FF"/><path fill-rule="evenodd" clip-rule="evenodd" d="M525.27 81.4592H564.003C567.807 81.4592 570.912 84.5638 570.912 88.3669V127.407C570.912 131.21 567.807 134.314 564.003 134.314H528.219C524.571 134.314 521.621 131.52 521.311 127.95L518.361 88.9102C518.051 85.1071 520.923 81.7697 524.726 81.5368C524.881 81.4592 525.037 81.4592 525.27 81.4592Z" fill="#A66640"/><path fill-rule="evenodd" clip-rule="evenodd" d="M534.234 100.004H525.075V105.127C525.075 110.016 529.034 113.897 533.846 113.897H543.006V108.775C543.083 103.962 539.125 100.004 534.234 100.004Z" fill="#3D3D3D"/><path fill-rule="evenodd" clip-rule="evenodd" d="M534.234 103.187H525.075V108.309C525.075 113.199 529.034 117.079 533.846 117.079H543.006V111.957C543.083 107.145 539.125 103.187 534.234 103.187Z" fill="white"/><path fill-rule="evenodd" clip-rule="evenodd" d="M535.399 100.547H535.243C533.225 100.547 531.518 102.177 531.518 104.273V107.222C531.518 109.24 533.148 110.948 535.243 110.948H535.399C537.417 110.948 539.125 109.318 539.125 107.222V104.273C539.125 102.177 537.495 100.547 535.399 100.547Z" fill="#4B4B4B"/><path fill-rule="evenodd" clip-rule="evenodd" d="M558.359 100.004H567.518V105.127C567.518 110.016 563.56 113.897 558.747 113.897H549.587V108.775C549.51 103.962 553.469 100.004 558.359 100.004Z" fill="#3D3D3D"/><path fill-rule="evenodd" clip-rule="evenodd" d="M558.359 103.187H567.518V108.309C567.518 113.199 563.56 117.079 558.747 117.079H549.587V111.957C549.51 107.145 553.469 103.187 558.359 103.187Z" fill="white"/><path fill-rule="evenodd" clip-rule="evenodd" d="M557.35 100.547H557.505C559.523 100.547 561.231 102.177 561.231 104.273V107.222C561.231 109.24 559.601 110.948 557.505 110.948H557.35C555.331 110.948 553.624 109.318 553.624 107.222V104.273C553.624 102.177 555.331 100.547 557.35 100.547Z" fill="#4B4B4B"/><path fill-rule="evenodd" clip-rule="evenodd" d="M546.305 104.899H546.771C547.857 104.899 548.711 105.752 548.711 106.839V117.705C548.711 118.792 547.857 119.645 546.771 119.645H546.305C545.218 119.645 544.364 118.792 544.364 117.705V106.839C544.287 105.83 545.218 104.899 546.305 104.899Z" fill="#733F21"/><path fill-rule="evenodd" clip-rule="evenodd" d="M544.753 111.729H548.246L551.428 117.317C551.971 118.248 551.661 119.413 550.729 119.956C550.419 120.111 550.108 120.189 549.798 120.189H543.278C542.191 120.189 541.337 119.335 541.337 118.248C541.337 117.938 541.415 117.55 541.57 117.317L544.753 111.729Z" fill="#733F21"/><path fill-rule="evenodd" clip-rule="evenodd" d="M563.693 65.626C572.153 65.626 578.984 72.456 578.984 80.916C578.984 89.3759 572.153 96.206 563.693 96.206C555.232 96.206 548.401 89.3759 548.401 80.916C548.401 72.456 555.232 65.626 563.693 65.626Z" fill="#FFB100"/><path fill-rule="evenodd" clip-rule="evenodd" d="M543.355 70.4382C549.1 70.4382 553.757 75.0951 553.757 80.8385C553.757 86.582 549.1 91.2388 543.355 91.2388C537.611 91.2388 532.954 86.582 532.954 80.8385C532.876 75.0951 537.534 70.4382 543.355 70.4382Z" fill="#FFB100"/><path fill-rule="evenodd" clip-rule="evenodd" d="M573.395 117.861L577.354 125.7C577.664 126.243 577.432 126.941 576.811 127.252C576.655 127.329 576.5 127.407 576.267 127.407H568.428C567.807 127.407 567.263 126.864 567.263 126.243C567.263 126.088 567.341 125.855 567.418 125.7L571.377 117.861C571.688 117.317 572.386 117.084 572.93 117.317C573.085 117.472 573.318 117.705 573.395 117.861Z" fill="#CE82FF"/><path fill-rule="evenodd" clip-rule="evenodd" d="M534.662 146.81C538.621 147.975 540.872 152.088 539.785 155.969L524.027 210.92C522.863 214.878 518.827 217.129 514.868 216.042C510.909 214.878 508.658 210.765 509.745 206.884L525.502 151.933C526.589 147.975 530.703 145.724 534.662 146.81Z" fill="#A66640"/><path d="M554.688 121.275C553.834 124.458 550.574 126.32 547.392 125.467" stroke="#733F21" stroke-width="3.1762" stroke-linecap="round"/><path fill-rule="evenodd" clip-rule="evenodd" d="M548.867 152.864C548.867 148.751 552.204 145.413 556.318 145.413H582.788C586.902 145.413 590.239 148.751 590.239 152.864C590.239 156.978 586.902 160.315 582.788 160.315H556.241C552.204 160.238 548.867 156.978 548.867 152.864Z" fill="#A66640"/><path fill-rule="evenodd" clip-rule="evenodd" d="M563.227 178.865C559.967 176.304 559.423 171.647 561.985 168.465L576.5 149.837C578.984 146.577 583.719 146.034 586.902 148.518C590.162 151.079 590.705 155.736 588.144 158.918L573.628 177.546C571.144 180.883 566.409 181.426 563.227 178.865Z" fill="#A66640"/><path fill-rule="evenodd" clip-rule="evenodd" d="M562.295 171.957C566.021 167.921 572.308 167.766 576.345 171.492L577.664 172.733C581.701 176.459 581.856 182.746 578.13 186.782C574.404 190.818 568.117 190.973 564.081 187.247L562.761 186.006C558.802 182.28 558.569 175.993 562.295 171.957Z" fill="#A66640"/><path fill-rule="evenodd" clip-rule="evenodd" d="M535.671 145.491H558.414C560.588 145.491 562.373 147.276 562.373 149.449V184.686C562.373 186.859 560.588 188.644 558.414 188.644H535.671C533.497 188.644 531.712 186.859 531.712 184.686V149.449C531.712 147.276 533.497 145.491 535.671 145.491Z" fill="#47D7FF"/><path fill-rule="evenodd" clip-rule="evenodd" d="M531.7 172.074H562.982C568.649 172.074 573.461 176.265 574.237 181.931L585.26 267.617C586.269 275.146 580.913 282.131 573.306 283.062C572.685 283.14 572.142 283.14 571.521 283.14H523.084C515.477 283.14 509.267 276.931 509.267 269.325C509.267 268.704 509.267 268.16 509.345 267.539L520.367 181.853C521.221 176.265 526.034 172.074 531.7 172.074Z" fill="#1CB0F6"/><mask id="mask12" mask-type="alpha" maskUnits="userSpaceOnUse" x="509" y="172" width="77" height="112"><path fill-rule="evenodd" clip-rule="evenodd" d="M531.7 172.074H562.982C568.649 172.074 573.461 176.265 574.237 181.931L585.26 267.617C586.269 275.146 580.913 282.131 573.306 283.062C572.685 283.14 572.142 283.14 571.521 283.14H523.084C515.477 283.14 509.267 276.931 509.267 269.325C509.267 268.704 509.267 268.16 509.345 267.539L520.367 181.853C521.221 176.265 526.034 172.074 531.7 172.074Z" fill="white"/></mask><g mask="url(#mask12)"><path d="M538.609 194.737L546.604 199.86" stroke="#1899D6" stroke-width="5.082" stroke-linecap="round" stroke-linejoin="round"/></g><mask id="mask13" mask-type="alpha" maskUnits="userSpaceOnUse" x="509" y="172" width="77" height="112"><path fill-rule="evenodd" clip-rule="evenodd" d="M531.7 172.074H562.982C568.649 172.074 573.461 176.265 574.237 181.931L585.26 267.617C586.269 275.146 580.913 282.131 573.306 283.062C572.685 283.14 572.142 283.14 571.521 283.14H523.084C515.477 283.14 509.267 276.931 509.267 269.325C509.267 268.704 509.267 268.16 509.345 267.539L520.367 181.853C521.221 176.265 526.034 172.074 531.7 172.074Z" fill="white"/></mask><g mask="url(#mask13)"><path d="M546.526 200.015V293.307" stroke="#1899D6" stroke-width="5.082" stroke-linecap="round" stroke-linejoin="round"/></g><path fill-rule="evenodd" clip-rule="evenodd" d="M556.784 140.368C556.784 141.3 556.008 142.076 555.076 142.076H539.785C538.853 142.076 538.077 141.3 538.077 140.368C538.077 139.437 538.853 138.661 539.785 138.661H555.076C556.008 138.661 556.784 139.437 556.784 140.368Z" fill="#303030"/><path fill-rule="evenodd" clip-rule="evenodd" d="M533.575 282.868H559.191C561.674 282.868 563.615 284.886 563.615 287.292C563.615 289.776 561.597 291.716 559.191 291.716H533.575C531.091 291.716 529.151 289.698 529.151 287.292C529.151 284.808 531.091 282.868 533.575 282.868Z" fill="#3D3D3D"/><path fill-rule="evenodd" clip-rule="evenodd" d="M106.184 110.648C111.151 110.648 115.188 114.684 115.188 119.651V180.423C115.188 185.39 111.151 189.426 106.184 189.426C101.216 189.426 97.1793 185.39 97.1793 180.423V119.651C97.1793 114.684 101.216 110.648 106.184 110.648Z" fill="#3D3D3D"/><path fill-rule="evenodd" clip-rule="evenodd" d="M188.852 120.815C193.819 120.815 197.856 124.851 197.856 129.818V190.59C197.856 195.557 193.819 199.593 188.852 199.593C183.884 199.593 179.847 195.557 179.847 190.59V129.818C179.847 124.851 183.884 120.815 188.852 120.815Z" fill="#3D3D3D"/><path fill-rule="evenodd" clip-rule="evenodd" d="M123.804 123.842C128.772 123.842 132.808 127.878 132.808 132.845V193.617C132.808 198.584 128.772 202.62 123.804 202.62C118.836 202.62 114.8 198.584 114.8 193.617V132.845C114.8 127.878 118.836 123.842 123.804 123.842Z" fill="#3D3D3D"/><path fill-rule="evenodd" clip-rule="evenodd" d="M192.888 107.232C197.856 107.232 201.892 111.268 201.892 116.236V155.276C201.892 160.243 197.856 164.279 192.888 164.279C187.92 164.279 183.884 160.243 183.884 155.276V116.236C183.961 111.268 187.92 107.232 192.888 107.232Z" fill="#3D3D3D"/><path fill-rule="evenodd" clip-rule="evenodd" d="M140.726 32.9558C164.789 32.9558 184.272 52.437 184.272 76.4974V146.195C184.272 170.255 164.789 189.736 140.726 189.736C116.663 189.736 97.1793 170.255 97.1793 146.195V76.4974C97.1793 52.437 116.663 32.9558 140.726 32.9558Z" fill="#3D3D3D"/><path fill-rule="evenodd" clip-rule="evenodd" d="M183.263 71.9958H186.601C197.856 71.9958 206.938 81.0767 206.938 92.3308V153.103C206.938 164.357 197.856 173.438 186.601 173.438H183.263C172.007 173.438 162.926 164.357 162.926 153.103V92.3308C162.926 81.0767 172.007 71.9958 183.263 71.9958Z" fill="#3D3D3D"/><path fill-rule="evenodd" clip-rule="evenodd" d="M136.688 166.266C140.854 167.056 143.548 171.134 142.758 175.3L135.065 215.47C134.274 219.635 130.272 222.312 126.106 221.521C121.94 220.73 119.246 216.652 120.037 212.487L127.729 172.316C128.52 168.151 132.505 165.399 136.688 166.266C136.671 166.19 136.671 166.19 136.688 166.266Z" fill="#A56644"/><path fill-rule="evenodd" clip-rule="evenodd" d="M131.986 205.586L138.409 209.6C140.736 211.054 141.435 214.079 139.963 216.331L135.95 222.753C134.495 225.08 131.47 225.779 129.143 224.325L122.719 220.311C120.392 218.857 119.693 215.832 121.165 213.58L125.179 207.158C126.633 204.83 129.658 204.132 131.986 205.586Z" fill="#A56644"/><path fill-rule="evenodd" clip-rule="evenodd" d="M142.38 155.843L143.988 156.316C149.577 157.93 152.773 163.693 151.159 169.282L141.717 202.596C140.103 208.185 134.339 211.381 128.745 209.844C128.745 209.844 128.745 209.844 128.668 209.84L127.06 209.367C121.471 207.753 118.275 201.99 119.89 196.401L129.331 163.087C130.945 157.498 136.791 154.229 142.38 155.843Z" fill="#FFB100"/><path fill-rule="evenodd" clip-rule="evenodd" d="M145.849 148.291H162.072C170.998 148.291 178.217 155.509 178.217 164.434V171.42C178.217 176.464 174.103 180.578 169.058 180.578H138.94C133.895 180.578 129.781 176.464 129.781 171.42V164.434C129.703 155.509 136.922 148.291 145.849 148.291Z" fill="#FFB100"/><path fill-rule="evenodd" clip-rule="evenodd" d="M153.3 66.1748H155.241C168.825 66.1748 179.847 77.196 179.847 90.7785V102.343C179.847 115.925 168.825 126.947 155.241 126.947H153.3C139.717 126.947 128.694 115.925 128.694 102.343V90.7785C128.694 77.196 139.717 66.1748 153.3 66.1748Z" fill="#FFB100"/><path fill-rule="evenodd" clip-rule="evenodd" d="M154.31 78.7483C168.437 78.7483 179.847 90.2352 179.847 104.283V124.541C179.847 131.836 173.948 137.735 166.652 137.735H141.968C134.671 137.735 128.772 131.836 128.772 124.541V104.361C128.694 90.2352 140.182 78.7483 154.31 78.7483Z" fill="#A56644"/><path fill-rule="evenodd" clip-rule="evenodd" d="M154.74 122.471C151.945 121.773 149.229 121.074 146.434 120.453C144.105 119.91 141.854 118.979 139.526 117.814C138.517 117.271 137.275 117.659 136.809 118.668C136.654 118.979 136.576 119.289 136.576 119.6V124.877C136.576 129.224 140.069 132.716 144.416 132.716H154.196C155.283 132.716 156.215 131.785 156.215 130.698V124.489C156.292 123.48 155.594 122.704 154.74 122.471Z" fill="#932626"/><mask id="mask14" mask-type="alpha" maskUnits="userSpaceOnUse" x="136" y="117" width="21" height="16"><path fill-rule="evenodd" clip-rule="evenodd" d="M154.74 122.471C151.945 121.773 149.229 121.074 146.434 120.453C144.105 119.91 141.854 118.979 139.526 117.814C138.517 117.271 137.275 117.659 136.809 118.668C136.654 118.979 136.576 119.289 136.576 119.6V124.877C136.576 129.224 140.069 132.716 144.416 132.716H154.196C155.283 132.716 156.215 131.785 156.215 130.698V124.489C156.292 123.48 155.594 122.704 154.74 122.471Z" fill="white"/></mask><g mask="url(#mask14)"><path d="M143.587 127.922C139.688 125.849 134.847 127.328 132.774 131.226C130.701 135.124 132.181 139.965 136.08 142.038C139.978 144.111 144.819 142.631 146.892 138.733C148.965 134.835 147.485 129.994 143.587 127.922Z" fill="#FF4B4B"/></g><mask id="mask15" mask-type="alpha" maskUnits="userSpaceOnUse" x="136" y="117" width="21" height="16"><path fill-rule="evenodd" clip-rule="evenodd" d="M154.74 122.471C151.945 121.773 149.229 121.074 146.434 120.453C144.105 119.91 141.854 118.979 139.526 117.814C138.517 117.271 137.275 117.659 136.809 118.668C136.654 118.979 136.576 119.289 136.576 119.6V124.877C136.576 129.224 140.069 132.716 144.416 132.716H154.196C155.283 132.716 156.215 131.785 156.215 130.698V124.489C156.292 123.48 155.594 122.704 154.74 122.471Z" fill="white"/></mask><g mask="url(#mask15)"><path fill-rule="evenodd" clip-rule="evenodd" d="M157.922 114.011H142.243C140.38 114.011 138.827 115.564 138.827 117.426V121.617C138.827 123.48 140.38 125.032 142.243 125.032H157.922C159.785 125.032 161.338 123.48 161.338 121.617V117.426C161.338 115.564 159.785 114.011 157.922 114.011Z" fill="white"/></g><path fill-rule="evenodd" clip-rule="evenodd" d="M164.478 92.3306C168.67 92.3306 172.085 95.7456 172.085 99.9368V106.068C172.085 110.259 168.67 113.674 164.478 113.674C160.286 113.674 156.871 110.259 156.871 106.068V99.9368C156.793 95.7456 160.209 92.3306 164.478 92.3306Z" fill="white"/><path fill-rule="evenodd" clip-rule="evenodd" d="M144.451 92.3306C140.26 92.3306 136.844 95.7456 136.844 99.9368V106.068C136.844 110.259 140.26 113.674 144.451 113.674C148.643 113.674 152.059 110.259 152.059 106.068V99.9368C152.059 95.7456 148.643 92.3306 144.451 92.3306Z" fill="white"/><path fill-rule="evenodd" clip-rule="evenodd" d="M145.849 97.7637C144.063 97.7637 142.666 99.2383 142.666 100.946V105.059C142.666 106.845 144.141 108.242 145.849 108.242C147.634 108.242 149.031 106.767 149.031 105.059V100.946C149.031 99.1607 147.634 97.7637 145.849 97.7637Z" fill="#4B4B4B"/><path fill-rule="evenodd" clip-rule="evenodd" d="M163.081 97.7637C161.296 97.7637 159.898 99.2383 159.898 100.946V105.059C159.898 106.845 161.373 108.242 163.081 108.242C164.866 108.242 166.263 106.767 166.263 105.059V100.946C166.341 99.1607 164.866 97.7637 163.081 97.7637Z" fill="#4B4B4B"/><path d="M134.128 110.337C139.561 111.657 143.365 113.364 145.616 115.46" stroke="#A56644" stroke-width="6.5557"/><path fill-rule="evenodd" clip-rule="evenodd" d="M154.465 101.8C155.551 101.8 156.483 102.653 156.561 103.74L157.492 115.77C157.647 117.478 156.328 118.952 154.698 119.03C154.62 119.03 154.542 119.03 154.465 119.03C152.757 119.03 151.438 117.633 151.438 116.003C151.438 115.925 151.438 115.848 151.438 115.77L152.369 103.74C152.447 102.653 153.378 101.8 154.465 101.8Z" fill="#8D4D2B"/><path fill-rule="evenodd" clip-rule="evenodd" d="M154.465 113.054C156.716 113.054 158.501 114.839 158.501 117.09C158.501 119.34 156.716 121.126 154.465 121.126C152.214 121.126 150.428 119.34 150.428 117.09C150.428 114.839 152.214 113.054 154.465 113.054Z" fill="#8D4D2B"/><path fill-rule="evenodd" clip-rule="evenodd" d="M139.406 54.6877C143.442 54.6877 146.703 57.9475 146.703 61.9835V83.7155C146.703 87.7514 143.442 91.0112 139.406 91.0112C135.37 91.0112 132.109 87.7514 132.109 83.7155V61.9835C132.109 57.9475 135.37 54.6877 139.406 54.6877Z" fill="#3D3D3D"/><path fill-rule="evenodd" clip-rule="evenodd" d="M147.013 135.717H160.907V147.98H147.013V135.717Z" fill="#A56644"/><path d="M97.7227 84.026C101.992 67.8822 107.891 57.5595 115.498 53.2131" stroke="#3D3D3D" stroke-width="20.1041" stroke-linecap="round" stroke-linejoin="round"/><path d="M205.152 104.516C201.815 92.4084 197.312 84.7246 191.724 81.3096" stroke="#3D3D3D" stroke-width="20.1041" stroke-linecap="round" stroke-linejoin="round"/><path fill-rule="evenodd" clip-rule="evenodd" d="M181.71 98.7727C184.427 98.7727 186.601 100.946 186.601 103.662V108.785C186.601 111.501 184.427 113.675 181.71 113.675C178.993 113.675 176.82 111.501 176.82 108.785V103.662C176.82 100.946 178.993 98.7727 181.71 98.7727Z" fill="#A56644"/><path fill-rule="evenodd" clip-rule="evenodd" d="M126.521 98.7727C129.237 98.7727 131.411 100.946 131.411 103.662V108.785C131.411 111.501 129.237 113.675 126.521 113.675C123.804 113.675 121.63 111.501 121.63 108.785V103.662C121.63 100.946 123.804 98.7727 126.521 98.7727Z" fill="#A56644"/><path fill-rule="evenodd" clip-rule="evenodd" d="M141.579 137.812H167.35C168.282 137.812 169.058 138.589 169.058 139.52V153.413C169.058 154.344 168.282 155.12 167.35 155.12H141.579C140.648 155.12 139.872 154.344 139.872 153.413V139.52C139.872 138.511 140.648 137.812 141.579 137.812Z" fill="#FFB100"/><path fill-rule="evenodd" clip-rule="evenodd" d="M199.516 284.697H175.143C173.28 284.697 171.728 286.249 171.728 288.112C171.728 289.974 173.28 291.527 175.143 291.527H199.516C201.379 291.527 202.932 289.974 202.932 288.112C202.932 286.171 201.379 284.697 199.516 284.697Z" fill="#FF4B4B"/><path fill-rule="evenodd" clip-rule="evenodd" d="M183.604 270.105H172.504C171.417 270.105 170.486 271.036 170.486 272.123C170.486 272.278 170.486 272.356 170.486 272.511L173.125 286.093C173.28 287.025 174.134 287.723 175.143 287.723H186.243C187.33 287.723 188.261 286.792 188.261 285.705C188.261 285.55 188.261 285.473 188.261 285.317L185.622 271.735C185.389 270.804 184.613 270.105 183.604 270.105Z" fill="#FF4B4B"/><path fill-rule="evenodd" clip-rule="evenodd" d="M154.418 284.697H135.09C133.227 284.697 131.674 286.249 131.674 288.112C131.674 289.974 133.227 291.527 135.09 291.527H154.418C156.281 291.527 157.833 289.974 157.833 288.112C157.833 286.171 156.358 284.697 154.418 284.697Z" fill="#FF4B4B"/><path fill-rule="evenodd" clip-rule="evenodd" d="M153.176 270.416H141.998C140.912 270.416 139.98 271.347 139.98 272.433C139.98 272.433 139.98 272.433 139.98 272.511L140.213 285.705C140.213 286.792 141.144 287.723 142.231 287.723H153.409C154.496 287.723 155.427 286.792 155.427 285.705C155.427 285.705 155.427 285.705 155.427 285.628L155.194 272.433C155.117 271.347 154.263 270.416 153.176 270.416Z" fill="#FF4B4B"/><path fill-rule="evenodd" clip-rule="evenodd" d="M137.186 180.538H156.979L159.851 265.215C159.929 267.466 158.144 269.329 155.893 269.407C155.815 269.407 155.815 269.407 155.737 269.407H140.834C138.583 269.407 136.798 267.621 136.798 265.371L137.186 180.538Z" fill="#1CB0F6"/><path fill-rule="evenodd" clip-rule="evenodd" d="M171.65 180.538H151.701L166.061 265.992C166.372 267.932 168.079 269.407 170.098 269.407H185.001C187.252 269.407 189.037 267.621 189.037 265.371C189.037 265.06 189.037 264.827 188.96 264.517L171.65 180.538Z" fill="#1CB0F6"/><path fill-rule="evenodd" clip-rule="evenodd" d="M135.167 258.23H157.523C159.386 258.23 160.938 259.783 160.938 261.645V269.795C160.938 271.657 159.386 273.21 157.523 273.21H135.167C133.304 273.21 131.752 271.657 131.752 269.795V261.645C131.752 259.783 133.304 258.23 135.167 258.23Z" fill="#42C2FF"/><path fill-rule="evenodd" clip-rule="evenodd" d="M166.294 258.23H188.649C190.512 258.23 192.065 259.783 192.065 261.645V269.795C192.065 271.657 190.512 273.21 188.649 273.21H166.294C164.431 273.21 162.879 271.657 162.879 269.795V261.645C162.956 259.783 164.431 258.23 166.294 258.23Z" fill="#42C2FF"/><path fill-rule="evenodd" clip-rule="evenodd" d="M137.854 179.181H170.766C171.231 179.181 171.697 179.491 171.775 179.957L172.706 184.381C172.784 184.924 172.473 185.468 171.93 185.623C171.852 185.623 171.775 185.623 171.697 185.623H137.854C137.31 185.623 136.844 185.157 136.844 184.614V180.19C136.844 179.647 137.31 179.181 137.854 179.181Z" fill="#3D3D3D"/><path fill-rule="evenodd" clip-rule="evenodd" d="M168.657 147.968L191.788 163.103C196.679 166.285 197.998 172.805 194.816 177.694C194.505 178.16 194.117 178.626 193.729 179.092L179.99 194.071C179.447 194.614 178.593 194.692 178.049 194.149C177.816 193.916 177.661 193.683 177.661 193.45L168.657 147.968Z" fill="#FFB100"/><path fill-rule="evenodd" clip-rule="evenodd" d="M172.926 175.056L177.972 176.53C179.835 177.074 181.154 178.781 181.154 180.799V191.587C181.154 193.993 179.214 196.011 176.73 196.011C176.186 196.011 175.721 195.934 175.255 195.779L167.337 192.829V179.324C167.337 176.918 169.278 174.9 171.762 174.9C172.15 174.9 172.538 174.9 172.926 175.056Z" fill="#A56644"/><path fill-rule="evenodd" clip-rule="evenodd" d="M167.493 174.745H171.219C173.004 174.745 174.479 176.22 174.479 178.005V178.315C174.479 180.101 173.004 181.575 171.219 181.575H167.493C165.707 181.575 164.233 180.101 164.233 178.315V178.005C164.31 176.22 165.707 174.745 167.493 174.745Z" fill="#A56644"/><path fill-rule="evenodd" clip-rule="evenodd" d="M163.456 179.48H169.511C171.684 179.48 173.392 181.265 173.392 183.36C173.392 185.534 171.607 187.241 169.511 187.241H163.456C161.283 187.241 159.575 185.456 159.575 183.36C159.575 181.265 161.283 179.48 163.456 179.48Z" fill="#A56644"/><path fill-rule="evenodd" clip-rule="evenodd" d="M165.552 187.474L169.123 185.534C170.908 184.525 173.159 185.146 174.168 187.008C175.177 188.793 174.479 191.044 172.693 192.053L169.123 193.994C167.337 195.003 165.086 194.382 164.077 192.519C163.068 190.734 163.767 188.483 165.552 187.474Z" fill="#A56644"/><path d="M215.074 103.891C219.79 103.891 223.613 100.069 223.613 95.3537C223.613 90.6386 219.79 86.8162 215.074 86.8162C210.358 86.8162 206.536 90.6386 206.536 95.3537C206.536 100.069 210.358 103.891 215.074 103.891Z" fill="#E79B7E"/><path d="M279.423 103.891C284.139 103.891 287.961 100.069 287.961 95.3537C287.961 90.6386 284.139 86.8162 279.423 86.8162C274.707 86.8162 270.885 90.6386 270.885 95.3537C270.885 100.069 274.707 103.891 279.423 103.891Z" fill="#E79B7E"/><path fill-rule="evenodd" clip-rule="evenodd" d="M231.53 179.099H263.355C263.588 179.099 263.743 179.254 263.743 179.487V286.905C263.743 287.138 263.588 287.293 263.355 287.293H231.53C231.297 287.293 231.142 287.138 231.142 286.905V179.487C231.142 179.254 231.375 179.099 231.53 179.099Z" fill="#2B70C9"/><path fill-rule="evenodd" clip-rule="evenodd" d="M213.118 148.659C217.848 150.668 220.058 156.105 218.048 160.835L194.439 216.488C193.576 218.46 191.356 219.392 189.384 218.529L179.372 214.296C177.4 213.433 176.468 211.214 177.331 209.242L200.941 153.588C202.873 148.861 208.39 146.727 213.118 148.659Z" fill="#E79B7E"/><path fill-rule="evenodd" clip-rule="evenodd" d="M188.172 208.329L194.274 214.019C197.244 216.788 197.41 221.52 194.64 224.49L188.95 230.591C186.18 233.561 181.448 233.727 178.477 230.957L172.376 225.268C169.405 222.498 169.24 217.766 172.01 214.796L177.7 208.695C180.467 205.647 185.122 205.485 188.172 208.329Z" fill="#E79B7E"/><path fill-rule="evenodd" clip-rule="evenodd" d="M192.29 215.02C190.041 215.098 188.319 216.944 188.397 219.194L188.714 228.269C188.793 230.519 190.639 232.24 192.889 232.162C195.139 232.083 196.861 230.237 196.782 227.988L196.465 218.912C196.386 216.663 194.54 214.941 192.29 215.02Z" fill="#E79B7E"/><path fill-rule="evenodd" clip-rule="evenodd" d="M216.715 140.456C221.445 142.466 223.655 147.903 221.645 152.633L198.18 207.97L181.073 200.724L204.46 145.389C206.47 140.659 211.985 138.447 216.715 140.456Z" fill="#1CB0F6"/><path fill-rule="evenodd" clip-rule="evenodd" d="M186.821 182.971L205.034 190.723C206.61 191.367 207.373 193.204 206.651 194.783L201.769 206.214C201.125 207.79 199.288 208.553 197.709 207.831L179.497 200.08C177.921 199.436 177.158 197.599 177.879 196.02L182.761 184.589C183.483 183.01 185.243 182.25 186.821 182.971Z" fill="#42C2FF"/><path fill-rule="evenodd" clip-rule="evenodd" d="M232.051 135.3H247.498C271.794 135.3 291.51 155.014 291.51 179.307V276.092C291.51 279.274 288.871 281.913 285.688 281.913H209.308C206.125 281.913 203.486 279.274 203.486 276.092V163.862C203.486 148.106 216.216 135.3 232.051 135.3Z" fill="#1CB0F6"/><mask id="mask16" mask-type="alpha" maskUnits="userSpaceOnUse" x="203" y="135" width="89" height="147"><path fill-rule="evenodd" clip-rule="evenodd" d="M232.051 135.3H247.498C271.794 135.3 291.51 155.014 291.51 179.307V276.092C291.51 279.274 288.871 281.913 285.688 281.913H209.308C206.125 281.913 203.486 279.274 203.486 276.092V163.862C203.486 148.106 216.216 135.3 232.051 135.3Z" fill="white"/></mask><g mask="url(#mask16)"><path fill-rule="evenodd" clip-rule="evenodd" d="M251.612 147.175L256.658 172.555C256.968 174.107 256.347 175.737 255.105 176.746L248.973 181.48C248.43 181.946 247.653 181.946 247.11 181.48L240.978 176.746C239.658 175.737 239.115 174.107 239.425 172.555L244.471 147.02C243.384 146.632 242.53 145.856 242.065 144.769L240.434 141.276C239.425 139.103 240.434 136.619 242.53 135.61C243.074 135.378 243.695 135.222 244.316 135.222H252.155C254.484 135.222 256.425 137.163 256.425 139.491C256.425 140.112 256.269 140.733 256.037 141.276L254.407 144.769C253.863 146.011 252.854 146.865 251.612 147.175Z" fill="#189AE8"/></g><mask id="mask17" mask-type="alpha" maskUnits="userSpaceOnUse" x="203" y="135" width="89" height="147"><path fill-rule="evenodd" clip-rule="evenodd" d="M232.051 135.3H247.498C271.794 135.3 291.51 155.014 291.51 179.307V276.092C291.51 279.274 288.871 281.913 285.688 281.913H209.308C206.125 281.913 203.486 279.274 203.486 276.092V163.862C203.486 148.106 216.216 135.3 232.051 135.3Z" fill="white"/></mask><g mask="url(#mask17)"><path fill-rule="evenodd" clip-rule="evenodd" d="M193.007 198.556H303.852C305.56 198.556 306.957 199.953 306.957 201.66V307.914C306.957 309.622 305.56 311.019 303.852 311.019H192.929C191.222 311.019 189.825 309.622 189.825 307.914V201.66C189.902 199.953 191.299 198.556 193.007 198.556Z" fill="#2B70C9"/></g><mask id="mask18" mask-type="alpha" maskUnits="userSpaceOnUse" x="203" y="135" width="89" height="147"><path fill-rule="evenodd" clip-rule="evenodd" d="M232.051 135.3H247.498C271.794 135.3 291.51 155.014 291.51 179.307V276.092C291.51 279.274 288.871 281.913 285.688 281.913H209.308C206.125 281.913 203.486 279.274 203.486 276.092V163.862C203.486 148.106 216.216 135.3 232.051 135.3Z" fill="white"/></mask><g mask="url(#mask18)"><path fill-rule="evenodd" clip-rule="evenodd" d="M193.007 188.854H303.852C305.56 188.854 306.957 190.251 306.957 191.958V195.451C306.957 197.158 305.56 198.556 303.852 198.556H192.929C191.222 198.556 189.825 197.158 189.825 195.451V191.958C189.902 190.251 191.299 188.854 193.007 188.854Z" fill="#3D3D3D"/></g><mask id="mask19" mask-type="alpha" maskUnits="userSpaceOnUse" x="203" y="135" width="89" height="147"><path fill-rule="evenodd" clip-rule="evenodd" d="M232.051 135.3H247.498C271.794 135.3 291.51 155.014 291.51 179.307V276.092C291.51 279.274 288.871 281.913 285.688 281.913H209.308C206.125 281.913 203.486 279.274 203.486 276.092V163.862C203.486 148.106 216.216 135.3 232.051 135.3Z" fill="white"/></mask><g mask="url(#mask19)"><path d="M257.03 188.918H237.393L237.394 198.62H257.031L257.03 188.918Z" fill="#938579"/></g><mask id="mask20" mask-type="alpha" maskUnits="userSpaceOnUse" x="203" y="135" width="89" height="147"><path fill-rule="evenodd" clip-rule="evenodd" d="M232.051 135.3H247.498C271.794 135.3 291.51 155.014 291.51 179.307V276.092C291.51 279.274 288.871 281.913 285.688 281.913H209.308C206.125 281.913 203.486 279.274 203.486 276.092V163.862C203.486 148.106 216.216 135.3 232.051 135.3Z" fill="white"/></mask><g mask="url(#mask20)"><path fill-rule="evenodd" clip-rule="evenodd" d="M247.731 217.959C249.128 217.959 250.292 219.123 250.292 220.52V284.164C250.292 285.561 249.128 286.725 247.731 286.725C246.334 286.725 245.169 285.561 245.169 284.164V220.52C245.092 219.123 246.256 217.959 247.731 217.959Z" fill="#1B5EB4"/></g><path fill-rule="evenodd" clip-rule="evenodd" d="M220.56 91.8324C212.953 91.8324 206.743 85.7008 206.743 78.1723C206.743 70.6437 212.953 64.5122 220.56 64.5122C228.167 64.5122 234.377 70.6437 234.377 78.1723C234.377 85.7008 228.167 91.8324 220.56 91.8324ZM271.869 91.8324C264.262 91.8324 258.052 85.7008 258.052 78.0947C258.052 70.4885 264.262 64.4346 271.869 64.4346C279.476 64.4346 285.685 70.5661 285.685 78.0947C285.685 85.6232 279.476 91.8324 271.869 91.8324Z" fill="#807A7A"/><mask id="mask21" mask-type="alpha" maskUnits="userSpaceOnUse" x="206" y="64" width="80" height="28"><path fill-rule="evenodd" clip-rule="evenodd" d="M220.56 91.8324C212.953 91.8324 206.743 85.7008 206.743 78.1723C206.743 70.6437 212.953 64.5122 220.56 64.5122C228.167 64.5122 234.377 70.6437 234.377 78.1723C234.377 85.7008 228.167 91.8324 220.56 91.8324ZM271.869 91.8324C264.262 91.8324 258.052 85.7008 258.052 78.0947C258.052 70.4885 264.262 64.4346 271.869 64.4346C279.476 64.4346 285.685 70.5661 285.685 78.0947C285.685 85.6232 279.476 91.8324 271.869 91.8324Z" fill="white"/></mask><g mask="url(#mask21)"><path fill-rule="evenodd" clip-rule="evenodd" d="M199.602 52.3267H297.639C299.347 52.3267 300.744 53.7237 300.744 55.4312V75.999C300.744 77.7065 299.347 79.1035 297.639 79.1035H199.524C197.817 79.1035 196.42 77.7065 196.42 75.999V55.4312C196.497 53.7237 197.894 52.3267 199.602 52.3267Z" fill="#3D3D3D"/></g><path d="M225.36 49.0777C218.812 52.5594 216.31 60.6588 219.772 67.1682C223.234 73.6777 231.349 76.1322 237.897 72.6505C244.445 69.1689 246.947 61.0695 243.485 54.56C240.023 48.0506 231.908 45.5961 225.36 49.0777Z" fill="#3D3D3D"/><path fill-rule="evenodd" clip-rule="evenodd" d="M247.029 55.061C261.933 55.061 273.964 67.0912 273.964 81.9931V138.807H220.094V81.9931C220.094 67.0912 232.203 55.061 247.029 55.061Z" fill="#E79B7E"/><mask id="mask22" mask-type="alpha" maskUnits="userSpaceOnUse" x="220" y="55" width="54" height="84"><path fill-rule="evenodd" clip-rule="evenodd" d="M247.029 55.061C261.933 55.061 273.964 67.0912 273.964 81.9931V138.807H220.094V81.9931C220.094 67.0912 232.203 55.061 247.029 55.061Z" fill="white"/></mask><g mask="url(#mask22)"><path fill-rule="evenodd" clip-rule="evenodd" d="M236.762 76.7622C233.036 76.7622 230.009 79.7892 230.009 83.5146V88.9476C230.009 92.6731 233.036 95.7001 236.762 95.7001C240.488 95.7001 243.515 92.6731 243.515 88.9476V83.5146C243.593 79.7892 240.566 76.7622 236.762 76.7622Z" fill="white"/><path fill-rule="evenodd" clip-rule="evenodd" d="M238.082 80.6428C236.296 80.6428 234.822 82.1175 234.822 83.9802V88.1714C234.822 90.0341 236.296 91.5088 238.082 91.5088C239.867 91.5088 241.342 90.0341 241.342 88.1714V83.9802C241.342 82.1175 239.867 80.6428 238.082 80.6428Z" fill="#4B4B4B"/><path fill-rule="evenodd" clip-rule="evenodd" d="M257.346 76.7622C261.072 76.7622 264.099 79.7892 264.099 83.5146V88.9476C264.099 92.6731 261.072 95.7001 257.346 95.7001C253.62 95.7001 250.593 92.6731 250.593 88.9476V83.5146C250.593 79.7892 253.62 76.7622 257.346 76.7622Z" fill="white"/><path fill-rule="evenodd" clip-rule="evenodd" d="M256.104 80.6428C257.89 80.6428 259.364 82.1175 259.364 83.9802V88.1714C259.364 90.0341 257.89 91.5088 256.104 91.5088C254.319 91.5088 252.844 90.0341 252.844 88.1714V83.9802C252.766 82.1175 254.241 80.6428 256.104 80.6428Z" fill="#4B4B4B"/><path d="M229.347 91.1216C234.703 91.3544 238.817 92.053 241.844 93.2172" stroke="#E79B7E" stroke-width="10.9886" stroke-linecap="round" stroke-linejoin="round"/><path fill-rule="evenodd" clip-rule="evenodd" d="M247.045 75.9868C248.442 75.9868 249.529 77.151 249.529 78.4705V95.9337C249.529 97.3307 248.364 98.4173 247.045 98.4173C245.725 98.4173 244.561 97.2531 244.561 95.9337V78.4705C244.561 77.0734 245.648 75.9868 247.045 75.9868Z" fill="#C75E49"/></g><path d="M265.063 92.4817C259.862 93.5683 255.903 95.1206 253.264 97.1385" stroke="#E79B7E" stroke-width="5.9938"/><path d="M236.964 98.4583L237.274 98.8463C241.543 104.279 249.383 105.133 254.817 100.864C255.671 100.166 256.447 99.3896 257.145 98.4583" stroke="#D87E64" stroke-width="3.7461" stroke-linecap="round" stroke-linejoin="round"/><path fill-rule="evenodd" clip-rule="evenodd" d="M273.834 143.009C269.953 146.346 269.565 152.245 272.903 156.125L293.162 179.41C296.5 183.29 302.399 183.679 306.28 180.341C310.161 177.004 310.55 171.105 307.212 167.224L286.952 143.94C283.615 139.982 277.715 139.594 273.834 143.009Z" fill="#1CB0F6"/><path fill-rule="evenodd" clip-rule="evenodd" d="M217.48 134.161H279.345C280.044 134.161 280.587 134.704 280.587 135.402V140.215C280.587 140.758 280.277 141.224 279.811 141.379L264.287 147.277L247.908 138.429L232.073 147.355L217.015 141.456C216.549 141.301 216.238 140.835 216.238 140.292V135.48C216.238 134.704 216.782 134.161 217.48 134.161Z" fill="#42C2FF"/><path d="M246.692 38.9438C237.646 43.7538 234.18 54.9241 238.95 63.8935C243.72 72.8629 254.92 76.2349 263.966 71.4249C273.013 66.615 276.479 55.4447 271.709 46.4753C266.938 37.5059 255.738 34.1339 246.692 38.9438Z" fill="#3D3D3D"/><path fill-rule="evenodd" clip-rule="evenodd" d="M210.339 281.24H284.546C287.418 281.24 289.747 283.568 289.747 286.44C289.747 289.311 287.418 291.64 284.546 291.64H210.261C207.389 291.64 205.061 289.311 205.061 286.44C205.061 283.568 207.467 281.24 210.339 281.24Z" fill="#4B4B4B"/><path fill-rule="evenodd" clip-rule="evenodd" d="M314.468 139.142L309.229 142.948C305.943 145.336 305.202 150.012 307.589 153.298L311.384 158.614C313.771 161.899 318.447 162.64 321.733 160.252L326.973 156.446C330.259 154.058 331 149.382 328.613 146.096L324.806 140.857C322.431 137.495 317.754 136.754 314.468 139.142Z" fill="#E79B7E"/><path fill-rule="evenodd" clip-rule="evenodd" d="M309.842 133.616C312.037 133.649 313.864 135.51 313.831 137.705L313.649 146.792C313.616 148.987 311.754 150.814 309.559 150.781C307.364 150.747 305.537 148.886 305.57 146.691L305.753 137.605C305.786 135.41 307.571 133.57 309.842 133.616Z" fill="#E79B7E"/><path fill-rule="evenodd" clip-rule="evenodd" d="M327.183 131.804C325.626 130.222 323.036 130.204 321.441 131.838L314.997 138.283C313.415 139.84 313.397 142.43 315.031 144.025C316.587 145.607 319.178 145.625 320.773 143.991L327.216 137.546C328.735 135.9 328.74 133.386 327.183 131.804Z" fill="#E79B7E"/><path fill-rule="evenodd" clip-rule="evenodd" d="M334.803 138.276C333.601 136.435 331.096 135.881 329.255 137.083L321.638 142.006C319.797 143.208 319.243 145.713 320.444 147.554C321.646 149.394 324.152 149.948 325.992 148.747L333.61 143.823C335.527 142.634 335.992 140.193 334.803 138.276Z" fill="#E79B7E"/><path fill-rule="evenodd" clip-rule="evenodd" d="M337.813 147.553C336.954 145.531 334.598 144.53 332.499 145.376L324.157 148.927C322.134 149.786 321.132 152.142 321.979 154.241C322.837 156.262 325.193 157.264 327.292 156.418L335.635 152.867C337.746 151.944 338.671 149.575 337.813 147.553Z" fill="#E79B7E"/><path fill-rule="evenodd" clip-rule="evenodd" d="M313.18 155.384C308.885 152.619 303.137 153.797 300.276 158.144L295.086 166.103C292.321 170.397 293.498 176.145 297.846 179.006C302.14 181.771 307.888 180.593 310.75 176.246L315.886 168.191C318.726 163.918 317.474 158.149 313.18 155.384Z" fill="#1CB0F6"/><path fill-rule="evenodd" clip-rule="evenodd" d="M322.677 158.026L305.894 147.563C304.456 146.666 302.558 147.091 301.66 148.529L295.082 159.078C294.185 160.516 294.61 162.414 296.048 163.311L312.831 173.775C314.27 174.672 316.168 174.247 317.065 172.808L323.643 162.26C324.615 160.843 324.19 158.945 322.677 158.026Z" fill="#42C2FF"/><path fill-rule="evenodd" clip-rule="evenodd" d="M606.494 181.006C612.005 183.489 614.489 189.854 612.083 195.364L594.308 235.258C591.824 240.769 585.459 243.175 579.947 240.769H579.87C574.359 238.363 571.875 231.921 574.359 226.41L592.134 186.516C594.618 181.006 601.061 178.6 606.494 181.006Z" fill="#FFB5A1"/><path fill-rule="evenodd" clip-rule="evenodd" d="M579.326 227.186L589.417 228.273C592.6 228.583 594.929 231.455 594.618 234.637L593.609 244.261C593.299 247.444 590.427 249.772 587.244 249.462L577.153 248.375C573.971 248.064 571.642 245.193 571.952 242.011L572.961 232.386C573.272 229.204 576.144 226.876 579.326 227.186Z" fill="#FFB5A1"/><path fill-rule="evenodd" clip-rule="evenodd" d="M568.227 233.551L576.299 223.228C577.774 221.365 580.491 220.977 582.431 222.452C584.294 223.926 584.682 226.721 583.208 228.583L575.135 238.906C573.66 240.769 570.943 241.157 569.003 239.682C567.062 238.207 566.752 235.491 568.227 233.551Z" fill="#FFB5A1"/><path fill-rule="evenodd" clip-rule="evenodd" d="M646.548 178.056C642.201 182.325 642.201 189.233 646.47 193.424L664.013 210.965C668.282 215.234 675.113 215.234 679.382 210.965C683.651 206.696 683.651 199.866 679.382 195.597L661.839 178.134C657.648 173.788 650.739 173.788 646.548 178.056Z" fill="#FFB5A1"/><path fill-rule="evenodd" clip-rule="evenodd" d="M679.382 175.883L694.751 183.024L682.564 209.18C680.003 214.613 673.56 216.941 668.127 214.458H668.049C662.616 211.896 660.209 205.454 662.771 200.021L672.939 178.289C674.104 175.806 676.976 174.719 679.382 175.883Z" fill="#FFB5A1"/><path fill-rule="evenodd" clip-rule="evenodd" d="M669.599 172.511C671.176 171.554 673.303 172.082 674.26 173.659L678.226 180.339C679.183 181.917 678.656 184.043 677.078 185C675.501 185.957 673.374 185.43 672.417 183.853L668.451 177.172C667.405 175.531 667.945 173.481 669.599 172.511Z" fill="#FFB5A1"/><path fill-rule="evenodd" clip-rule="evenodd" d="M684.881 165.298C686.673 166.193 687.409 168.355 686.514 170.147L682.232 178.84C681.337 180.632 679.175 181.368 677.383 180.473C675.591 179.578 674.855 177.415 675.75 175.623L680.031 166.93C680.926 165.138 683.089 164.403 684.881 165.298Z" fill="#FFB5A1"/><path fill-rule="evenodd" clip-rule="evenodd" d="M693.547 168.405C695.145 169.566 695.51 171.866 694.348 173.464L688.928 180.923C687.767 182.522 685.467 182.886 683.868 181.725C682.27 180.563 681.906 178.264 683.067 176.665L688.487 169.206C689.648 167.608 691.871 167.255 693.547 168.405Z" fill="#FFB5A1"/><path fill-rule="evenodd" clip-rule="evenodd" d="M699.103 175.697C700.443 177.214 700.259 179.522 698.73 180.785L691.752 186.841C690.235 188.182 687.927 187.997 686.663 186.468C685.323 184.952 685.507 182.644 687.036 181.38L694.014 175.324C695.531 173.984 697.839 174.168 699.103 175.697Z" fill="#FFB5A1"/><path fill-rule="evenodd" clip-rule="evenodd" d="M629.424 95.3208C647.432 95.3208 661.948 109.912 661.948 127.841V149.573C661.948 167.58 647.354 182.093 629.424 182.093C611.493 182.093 596.9 167.502 596.9 149.573V127.841C596.9 109.912 611.415 95.3208 629.424 95.3208Z" fill="#E5A259"/><path d="M659.304 127.739C655.228 126.723 651.099 129.204 650.083 133.28C649.067 137.356 651.548 141.484 655.624 142.5C659.701 143.516 663.829 141.036 664.845 136.96C665.862 132.884 663.381 128.756 659.304 127.739Z" fill="#FFB5A1"/><path d="M602.504 127.731C598.428 126.715 594.299 129.196 593.283 133.272C592.267 137.348 594.748 141.476 598.824 142.492C602.9 143.508 607.029 141.028 608.045 136.951C609.061 132.875 606.581 128.747 602.504 127.731Z" fill="#FFB5A1"/><path fill-rule="evenodd" clip-rule="evenodd" d="M597.723 146.856H659.744C666.885 146.856 672.707 152.677 672.707 159.817C672.707 166.958 666.885 172.779 659.744 172.779H597.723C590.582 172.779 584.76 166.958 584.76 159.817C584.76 152.599 590.582 146.856 597.723 146.856Z" fill="#E5A259"/><path fill-rule="evenodd" clip-rule="evenodd" d="M593.066 185.275L586.08 200.332C582.664 207.628 585.847 216.243 593.066 219.658C600.362 223.073 608.978 219.891 612.394 212.595L619.38 197.538C622.795 190.242 619.613 181.627 612.394 178.212C605.097 174.797 596.481 177.979 593.066 185.275Z" fill="#FF7878"/><path fill-rule="evenodd" clip-rule="evenodd" d="M665.022 185.275L672.008 200.332C675.423 207.628 672.241 216.243 665.022 219.658C657.725 223.073 649.109 219.891 645.694 212.595L638.708 197.538C635.292 190.242 638.475 181.627 645.694 178.212C652.99 174.797 661.606 177.979 665.022 185.275Z" fill="#FF7878"/><path fill-rule="evenodd" clip-rule="evenodd" d="M628.927 163.077H629.16C651.438 163.077 669.524 181.161 669.524 203.436V211.819C669.524 234.094 651.438 252.178 629.16 252.178H628.927C606.65 252.178 588.563 234.094 588.563 211.819V203.514C588.563 181.161 606.65 163.077 628.927 163.077Z" fill="#FF7878"/><path fill-rule="evenodd" clip-rule="evenodd" d="M627.944 101.199H630.117C644.012 101.199 655.345 112.453 655.345 126.424V172.759H602.717V126.424C602.717 112.453 614.049 101.199 627.944 101.199Z" fill="#FFB5A1"/><path fill-rule="evenodd" clip-rule="evenodd" d="M615.373 147.719H636.331C636.952 147.719 637.495 148.263 637.495 148.883V154.782C637.495 158.663 634.312 161.845 630.431 161.845H621.194C617.313 161.845 614.131 158.663 614.131 154.782V148.883C614.208 148.263 614.674 147.719 615.373 147.719Z" fill="#932626"/><mask id="mask23" mask-type="alpha" maskUnits="userSpaceOnUse" x="614" y="147" width="24" height="15"><path fill-rule="evenodd" clip-rule="evenodd" d="M615.373 147.719H636.331C636.952 147.719 637.495 148.263 637.495 148.883V154.782C637.495 158.663 634.312 161.845 630.431 161.845H621.194C617.313 161.845 614.131 158.663 614.131 154.782V148.883C614.208 148.263 614.674 147.719 615.373 147.719Z" fill="white"/></mask><g mask="url(#mask23)"><path fill-rule="evenodd" clip-rule="evenodd" d="M610.094 143.062H632.76C633.381 143.062 633.924 143.606 633.924 144.227V151.833C633.924 152.454 633.381 152.997 632.76 152.997H610.094C609.473 152.997 608.93 152.454 608.93 151.833V144.227C608.93 143.528 609.473 143.062 610.094 143.062Z" fill="white"/></g><mask id="mask24" mask-type="alpha" maskUnits="userSpaceOnUse" x="614" y="147" width="24" height="15"><path fill-rule="evenodd" clip-rule="evenodd" d="M615.373 147.719H636.331C636.952 147.719 637.495 148.263 637.495 148.883V154.782C637.495 158.663 634.312 161.845 630.431 161.845H621.194C617.313 161.845 614.131 158.663 614.131 154.782V148.883C614.208 148.263 614.674 147.719 615.373 147.719Z" fill="white"/></mask><g mask="url(#mask24)"><path fill-rule="evenodd" clip-rule="evenodd" d="M618.245 155.947C623.057 155.947 626.938 159.827 626.938 164.639V164.795C626.938 169.607 623.057 173.487 618.245 173.487C613.432 173.487 609.551 169.607 609.551 164.795V164.639C609.551 159.827 613.432 155.947 618.245 155.947Z" fill="#EA2B2B"/></g><path fill-rule="evenodd" clip-rule="evenodd" d="M639.898 118.507C644.245 118.507 647.738 122 647.738 126.269V132.478C647.738 136.747 644.245 140.239 639.975 140.239H639.898C635.629 140.239 632.135 136.747 632.135 132.478V126.269C632.135 122 635.551 118.507 639.898 118.507Z" fill="white"/><path fill-rule="evenodd" clip-rule="evenodd" d="M618.241 118.507C613.894 118.507 610.401 122 610.401 126.269V132.478C610.401 136.747 613.894 140.239 618.163 140.239H618.241C622.51 140.239 626.003 136.747 626.003 132.478V126.269C626.003 122 622.51 118.507 618.241 118.507Z" fill="white"/><path fill-rule="evenodd" clip-rule="evenodd" d="M619.638 124.018C617.775 124.018 616.378 125.492 616.378 127.277V131.469C616.378 133.254 617.853 134.728 619.638 134.728C621.424 134.728 622.898 133.254 622.898 131.469V127.277C622.898 125.492 621.424 124.018 619.638 124.018Z" fill="#4B4B4B"/><path fill-rule="evenodd" clip-rule="evenodd" d="M638.19 124.018C636.327 124.018 634.93 125.492 634.93 127.277V131.469C634.93 133.254 636.405 134.728 638.19 134.728C639.975 134.728 641.45 133.254 641.45 131.469V127.277C641.45 125.492 639.975 124.018 638.19 124.018Z" fill="#4B4B4B"/><path d="M645.626 88.2574C636.516 85.9866 627.299 91.496 625.038 100.563C622.777 109.63 628.329 118.821 637.439 121.092C646.549 123.363 655.766 117.854 658.027 108.786C660.288 99.7194 654.735 90.5282 645.626 88.2574Z" fill="#E5A259"/><path fill-rule="evenodd" clip-rule="evenodd" d="M589.262 216.321H668.903C669.291 216.321 669.601 216.631 669.601 217.019V276.86C669.601 278.955 667.894 280.663 665.798 280.663H592.367C590.271 280.663 588.563 278.955 588.563 276.86V217.019C588.563 216.631 588.874 216.321 589.262 216.321Z" fill="#E85A5A"/><path d="M609.599 136.843C616.042 137.309 620.777 139.172 623.804 142.354" stroke="#FFB5A1" stroke-width="5.3382" stroke-linecap="round" stroke-linejoin="round"/><path fill-rule="evenodd" clip-rule="evenodd" d="M629.238 122.252C629.626 122.252 630.014 122.33 630.402 122.563C630.713 122.795 631.023 123.028 631.178 123.339C631.411 123.649 631.489 124.037 631.489 124.503V142.587C631.489 142.975 631.411 143.363 631.178 143.751C630.945 144.062 630.713 144.372 630.402 144.527C630.092 144.76 629.704 144.838 629.238 144.838C628.772 144.838 628.462 144.76 628.074 144.527C627.763 144.295 627.453 144.062 627.297 143.751C627.064 143.441 626.987 143.053 626.987 142.587V124.581C626.987 124.193 627.064 123.804 627.297 123.416C627.53 123.106 627.763 122.795 628.074 122.64C628.462 122.407 628.85 122.252 629.238 122.252Z" fill="#E47A65"/><path fill-rule="evenodd" clip-rule="evenodd" d="M628.539 138.085H629.936C632.11 138.085 633.895 139.87 633.895 142.044C633.895 144.217 632.11 146.002 629.936 146.002H628.539C626.366 146.002 624.58 144.217 624.58 142.044C624.58 139.87 626.366 138.085 628.539 138.085Z" fill="#E47A65"/><path fill-rule="evenodd" clip-rule="evenodd" d="M628.694 172.779H655.707L648.255 180.618C643.908 185.119 636.767 185.352 632.265 181.006C630.014 178.833 628.694 175.883 628.694 172.779Z" fill="white"/><path fill-rule="evenodd" clip-rule="evenodd" d="M629.781 172.779H602.769L610.143 180.463C614.49 185.042 621.708 185.197 626.288 180.851C628.462 178.755 629.704 175.883 629.781 172.856V172.779Z" fill="white"/><path d="M629.95 194.325C627.912 193.817 625.847 195.057 625.339 197.095C624.831 199.133 626.072 201.197 628.11 201.705C630.148 202.213 632.212 200.973 632.72 198.935C633.229 196.897 631.988 194.833 629.95 194.325Z" fill="white"/><path fill-rule="evenodd" clip-rule="evenodd" d="M610.686 280.663H647.091C650.118 280.663 652.602 283.146 652.602 286.173C652.602 289.2 650.118 291.684 647.091 291.684H610.686C607.659 291.684 605.175 289.2 605.175 286.173C605.175 283.146 607.659 280.663 610.686 280.663Z" fill="#FF4B4B"/><path d="M479.12 188.949H452.806L452.801 291.03H479.115L479.12 188.949Z" fill="#3D3D3D"/><path fill-rule="evenodd" clip-rule="evenodd" d="M438.309 186.974H493.654C496.293 186.974 498.466 189.147 498.466 191.786V228.032C498.466 230.671 496.293 232.844 493.654 232.844H438.309C435.67 232.844 433.496 230.671 433.496 228.032V191.786C433.419 189.147 435.592 186.974 438.309 186.974Z" fill="#58A700"/><path fill-rule="evenodd" clip-rule="evenodd" d="M396.936 201.876L431.168 142.579C432.487 140.25 435.437 139.474 437.766 140.793L457.482 152.203C459.81 153.522 460.587 156.472 459.267 158.8L425.035 218.097C423.716 220.426 420.766 221.202 418.437 219.882L398.721 208.473C396.393 207.154 395.616 204.204 396.936 201.876Z" fill="#78C800"/><path d="M439.025 84.8965C435.281 83.9632 431.49 86.2413 430.556 89.9845C429.623 93.7278 431.901 97.5189 435.645 98.4521C439.389 99.3853 443.18 97.1073 444.113 93.364C445.047 89.6207 442.768 85.8297 439.025 84.8965Z" fill="#A56644"/><path d="M492.96 84.896C489.217 83.9628 485.425 86.2408 484.492 89.9841C483.559 93.7274 485.837 97.5184 489.58 98.4516C493.324 99.3848 497.116 97.1068 498.049 93.3635C498.982 89.6203 496.704 85.8292 492.96 84.896Z" fill="#A56644"/><path fill-rule="evenodd" clip-rule="evenodd" d="M529.593 212.975L524.237 203.739C523.383 202.264 521.443 201.721 519.968 202.574C518.493 203.428 517.95 205.369 518.803 206.843L524.159 216.079C525.013 217.554 526.954 218.097 528.429 217.243C529.904 216.39 530.447 214.449 529.593 212.975Z" fill="#A56644"/><path fill-rule="evenodd" clip-rule="evenodd" d="M525.246 215.847L519.89 206.61C519.036 205.136 517.096 204.592 515.621 205.446C514.146 206.3 513.603 208.24 514.457 209.715L519.813 218.951C520.666 220.426 522.607 220.969 524.082 220.115C525.557 219.339 526.1 217.399 525.246 215.847Z" fill="#A56644"/><path fill-rule="evenodd" clip-rule="evenodd" d="M520.899 218.33L515.543 209.094C514.689 207.619 512.749 207.076 511.274 207.93C509.799 208.784 509.256 210.724 510.11 212.199L515.466 221.435C516.319 222.909 518.26 223.453 519.735 222.599C521.21 221.745 521.753 219.805 520.899 218.33Z" fill="#A56644"/><path fill-rule="evenodd" clip-rule="evenodd" d="M528.739 206.688L525.091 200.401C524.159 198.771 522.064 198.228 520.434 199.16L507.936 206.455C506.306 207.387 505.763 209.482 506.695 211.112L510.343 217.399C511.274 219.029 513.37 219.572 515 218.641L527.575 211.345C529.127 210.414 529.671 208.318 528.739 206.688Z" fill="#58A700"/><path fill-rule="evenodd" clip-rule="evenodd" d="M528.972 195.434L498.233 142.113C496.914 139.785 493.964 139.008 491.635 140.328L471.919 151.737C469.591 153.057 468.814 156.006 470.134 158.334L500.873 211.655C502.736 214.915 506.927 216.002 510.11 214.139L526.488 204.67C529.671 202.807 530.835 198.616 528.972 195.434Z" fill="#78C800"/><path fill-rule="evenodd" clip-rule="evenodd" d="M446.537 41.2146H482.088C486.124 41.2146 489.385 44.4744 489.385 48.5103V69.4662C489.385 70.7856 488.375 71.7946 487.056 71.7946H441.647C440.327 71.7946 439.318 70.7856 439.318 69.4662V48.5103C439.318 44.4744 442.578 41.2146 446.537 41.2146Z" fill="#3D3D3D"/><path fill-rule="evenodd" clip-rule="evenodd" d="M462.139 131.092H467.107C488.453 131.092 505.763 148.4 505.763 169.744V221.202C505.763 223.53 503.822 225.471 501.494 225.471H427.675C425.346 225.471 423.405 223.53 423.405 221.202V169.744C423.483 148.4 440.793 131.092 462.139 131.092Z" fill="#78C800"/><path fill-rule="evenodd" clip-rule="evenodd" d="M439.318 66.8271H489.385V116.267H439.318V66.8271Z" fill="#A56644"/><path fill-rule="evenodd" clip-rule="evenodd" d="M473.946 77.5576C478.06 77.5576 481.398 80.895 481.398 84.931V90.6744C481.398 94.788 478.06 98.0477 474.023 98.0477H473.946C469.832 98.0477 466.572 94.7103 466.572 90.6744V84.931C466.494 80.895 469.832 77.5576 473.946 77.5576Z" fill="white"/><path fill-rule="evenodd" clip-rule="evenodd" d="M454.23 77.5576C450.116 77.5576 446.778 80.895 446.778 84.931V90.6744C446.778 94.788 450.116 98.0477 454.152 98.0477H454.23C458.344 98.0477 461.604 94.7103 461.604 90.6744V84.931C461.604 80.895 458.266 77.5576 454.23 77.5576Z" fill="white"/><path fill-rule="evenodd" clip-rule="evenodd" d="M455.472 82.7578C453.686 82.7578 452.289 84.1549 452.289 85.8624V89.7431C452.289 91.4506 453.686 92.8476 455.394 92.8476C457.102 92.8476 458.499 91.4506 458.499 89.7431V85.8624C458.654 84.1549 457.257 82.7578 455.472 82.7578Z" fill="#4B4B4B"/><path fill-rule="evenodd" clip-rule="evenodd" d="M472.316 82.7578C470.53 82.7578 469.133 84.1549 469.133 85.8624V89.7431C469.133 91.4506 470.53 92.8476 472.238 92.8476C473.946 92.8476 475.343 91.4506 475.343 89.7431V85.8624C475.421 84.1549 474.023 82.7578 472.316 82.7578Z" fill="#4B4B4B"/><path fill-rule="evenodd" clip-rule="evenodd" d="M464.321 79.498C465.718 79.498 466.805 80.5846 466.805 81.9817V103.248C466.805 104.645 465.718 105.732 464.321 105.732C462.923 105.732 461.837 104.645 461.837 103.248V81.9817C461.837 80.5846 462.923 79.498 464.321 79.498Z" fill="#8D4D2B"/><path fill-rule="evenodd" clip-rule="evenodd" d="M463.544 98.8237H465.097C467.581 98.8237 469.521 100.842 469.521 103.248C469.521 105.731 467.503 107.672 465.097 107.672H463.544C461.06 107.672 459.12 105.654 459.12 103.248C459.12 100.842 461.138 98.8237 463.544 98.8237Z" fill="#8D4D2B"/><path fill-rule="evenodd" clip-rule="evenodd" d="M463.614 128.065H483.019C484.494 128.065 485.736 129.307 485.736 130.781V179.911C485.736 181.386 484.494 182.628 483.019 182.628H463.614C462.139 182.628 460.897 181.386 460.897 179.911V130.781C460.897 129.229 462.139 128.065 463.614 128.065Z" fill="#ADE756"/><path fill-rule="evenodd" clip-rule="evenodd" d="M435.126 112.309H493.498C496.06 112.309 498.156 114.405 498.156 116.966V137.223C498.156 139.784 496.06 141.88 493.498 141.88H435.126C432.565 141.88 430.469 139.784 430.469 137.223V116.966C430.469 114.405 432.565 112.309 435.126 112.309Z" fill="#ADE756"/><path fill-rule="evenodd" clip-rule="evenodd" d="M448.478 282.681H484.106C486.59 282.681 488.608 284.699 488.608 287.183C488.608 289.667 486.59 291.685 484.106 291.685H448.478C445.994 291.685 443.975 289.667 443.975 287.183C443.975 284.699 445.994 282.681 448.478 282.681Z" fill="#FF4B4B"/><path d="M465.166 187.207V194.736" stroke="#ADE756" stroke-width="6.8678" stroke-linecap="round"/><path d="M472.928 187.207V194.736" stroke="#ADE756" stroke-width="6.8678" stroke-linecap="round"/><path d="M480.691 187.207V194.736" stroke="#ADE756" stroke-width="6.8678" stroke-linecap="round"/><path d="M445.217 39.74V47.2686L456.938 41.2147" stroke="#3D3D3D" stroke-width="14.9844" stroke-linecap="round"/><path fill-rule="evenodd" clip-rule="evenodd" d="M398.389 82.8679C417.328 82.8679 433.008 97.6922 433.94 116.63L434.405 125.323L436.346 144.338C436.501 146.046 435.259 147.598 433.552 147.753C433.474 147.753 433.319 147.753 433.241 147.753H363.536C361.828 147.753 360.431 146.356 360.431 144.649C360.431 144.571 360.431 144.416 360.431 144.338L362.372 125.323L362.837 116.63C363.769 97.6922 379.449 82.8679 398.389 82.8679Z" fill="#303030"/><path fill-rule="evenodd" clip-rule="evenodd" d="M381.544 109.102H415.155C416.164 109.102 416.94 109.878 416.94 110.887V138.905C416.94 149.151 408.635 157.455 398.389 157.455C388.142 157.455 379.759 149.151 379.759 138.905V110.887C379.759 109.878 380.613 109.102 381.544 109.102Z" fill="#FFC6B7"/><path d="M405.064 134.481C404.288 137.353 401.338 139.061 398.466 138.285" stroke="#EE9583" stroke-width="2.8658" stroke-linecap="round"/><path fill-rule="evenodd" clip-rule="evenodd" d="M375.179 127.108C379.138 127.108 382.321 130.29 382.321 134.248C382.321 138.207 379.138 141.389 375.179 141.389C371.221 141.389 368.038 138.207 368.038 134.248C368.116 130.29 371.298 127.108 375.179 127.108Z" fill="#FFC6B7"/><path fill-rule="evenodd" clip-rule="evenodd" d="M420.589 127.108C424.548 127.108 427.73 130.29 427.73 134.248C427.73 138.207 424.548 141.389 420.589 141.389C416.63 141.389 413.448 138.207 413.448 134.248C413.525 130.29 416.708 127.108 420.589 127.108Z" fill="#FFC6B7"/><path fill-rule="evenodd" clip-rule="evenodd" d="M376.965 106.928H391.247C393.421 106.928 395.284 108.713 395.284 110.964V126.487C395.284 128.66 393.498 130.523 391.247 130.523H376.965C374.791 130.523 372.928 128.738 372.928 126.487V110.964C373.006 108.713 374.791 106.928 376.965 106.928Z" fill="white"/><path fill-rule="evenodd" clip-rule="evenodd" d="M397.923 113.526C399.398 113.526 400.562 114.69 400.562 116.165V130.834C400.562 132.308 399.398 133.472 397.923 133.472C396.448 133.472 395.284 132.308 395.284 130.834V116.165C395.284 114.767 396.448 113.526 397.923 113.526Z" fill="#EE9583"/><path fill-rule="evenodd" clip-rule="evenodd" d="M390.549 115.776C392.412 115.776 393.886 117.251 393.886 119.114V122.684C393.886 124.547 392.412 126.021 390.549 126.021C388.686 126.021 387.211 124.547 387.211 122.684V119.114C387.211 117.251 388.763 115.776 390.549 115.776Z" fill="#4B4B4B"/><path fill-rule="evenodd" clip-rule="evenodd" d="M404.598 106.928H418.881C421.054 106.928 422.917 108.713 422.917 110.964V126.487C422.917 128.66 421.132 130.523 418.881 130.523H404.598C402.425 130.523 400.562 128.738 400.562 126.487V110.964C400.562 108.713 402.425 106.928 404.598 106.928Z" fill="white"/><path fill-rule="evenodd" clip-rule="evenodd" d="M395.594 127.574H400.329C401.804 127.574 403.046 128.816 403.046 130.29C403.046 131.765 401.804 133.007 400.329 133.007H395.594C394.119 133.007 392.877 131.765 392.877 130.29C392.8 128.816 394.042 127.574 395.594 127.574Z" fill="#EE9583"/><path fill-rule="evenodd" clip-rule="evenodd" d="M406.151 115.776C408.014 115.776 409.489 117.251 409.489 119.114V122.684C409.489 124.547 408.014 126.021 406.151 126.021C404.288 126.021 402.813 124.547 402.813 122.684V119.114C402.813 117.251 404.288 115.776 406.151 115.776Z" fill="#4B4B4B"/><path fill-rule="evenodd" clip-rule="evenodd" d="M381.598 161.817H414.666C420.798 161.817 426.154 165.853 427.861 171.752L440.747 216.38C441.834 220.183 439.66 224.141 435.857 225.228C433.14 226.004 430.19 225.15 428.405 222.977L421.729 215.06L398.132 239.276L374.535 215.06L367.859 222.977C365.298 226.004 360.796 226.392 357.768 223.831C355.595 221.968 354.663 219.096 355.517 216.38L368.403 171.752C370.11 165.931 375.466 161.817 381.598 161.817Z" fill="#FFC6B7"/><path fill-rule="evenodd" clip-rule="evenodd" d="M369.45 219.989C370.847 221.076 371.08 223.016 369.994 224.413L361.61 235.124C360.524 236.521 358.583 236.754 357.186 235.667C355.789 234.581 355.556 232.64 356.643 231.243L365.026 220.533C366.112 219.136 368.131 218.903 369.45 219.989Z" fill="#FFC6B7"/><path fill-rule="evenodd" clip-rule="evenodd" d="M361.998 215.488C363.473 214.556 365.414 215.022 366.345 216.497L373.564 227.984C374.496 229.458 374.03 231.399 372.555 232.33C371.08 233.261 369.14 232.796 368.208 231.321L360.989 219.834C360.058 218.359 360.524 216.419 361.998 215.488Z" fill="#FFC6B7"/><path fill-rule="evenodd" clip-rule="evenodd" d="M367.044 218.592C368.053 219.989 367.743 222.007 366.345 223.016L355.401 231.011C354.003 232.02 351.985 231.709 350.976 230.312C349.967 228.915 350.277 226.897 351.675 225.888L362.619 217.894C364.017 216.885 366.035 217.195 367.044 218.592Z" fill="#FFC6B7"/><path fill-rule="evenodd" clip-rule="evenodd" d="M364.948 215.565C365.724 217.118 365.103 218.98 363.551 219.834L351.442 225.966C349.889 226.742 348.026 226.121 347.173 224.569C346.396 223.016 347.017 221.154 348.57 220.3L360.679 214.168C362.231 213.392 364.172 214.013 364.948 215.565Z" fill="#FFC6B7"/><path fill-rule="evenodd" clip-rule="evenodd" d="M426.549 219.989C425.152 221.076 424.919 223.016 426.006 224.413L434.311 235.047C435.398 236.444 437.339 236.676 438.736 235.59C440.133 234.503 440.366 232.563 439.279 231.166L430.896 220.455C429.887 219.136 427.946 218.903 426.549 219.989Z" fill="#FFC6B7"/><path fill-rule="evenodd" clip-rule="evenodd" d="M434.078 215.488C432.604 214.556 430.663 215.022 429.732 216.497L422.513 227.984C421.581 229.458 422.047 231.399 423.522 232.33C424.997 233.261 426.937 232.796 427.869 231.321L435.088 219.834C435.941 218.359 435.553 216.419 434.078 215.488Z" fill="#FFC6B7"/><path fill-rule="evenodd" clip-rule="evenodd" d="M428.955 218.592C427.946 219.989 428.257 222.007 429.654 223.016L440.599 231.011C441.996 232.02 444.014 231.709 445.023 230.312C446.032 228.915 445.722 226.897 444.325 225.888L433.38 217.894C431.983 216.885 429.965 217.195 428.955 218.592Z" fill="#FFC6B7"/><path fill-rule="evenodd" clip-rule="evenodd" d="M431.051 215.565C430.275 217.118 430.896 218.98 432.448 219.834L444.557 225.966C446.11 226.742 447.973 226.121 448.827 224.569C449.603 223.016 448.982 221.154 447.43 220.3L435.32 214.168C433.768 213.392 431.827 214.013 431.051 215.565Z" fill="#FFC6B7"/><path fill-rule="evenodd" clip-rule="evenodd" d="M381.644 193.921H414.556C422.706 193.921 429.304 200.519 429.304 208.668C429.304 209.755 429.149 210.841 428.916 211.928L412.615 284.109H383.584L367.283 211.928C365.498 204.011 370.466 196.095 378.461 194.309C379.47 194.077 380.557 193.921 381.644 193.921Z" fill="#9069CD"/><mask id="mask25" mask-type="alpha" maskUnits="userSpaceOnUse" x="366" y="193" width="64" height="92"><path fill-rule="evenodd" clip-rule="evenodd" d="M381.644 193.921H414.556C422.706 193.921 429.304 200.519 429.304 208.668C429.304 209.755 429.149 210.841 428.916 211.928L412.615 284.109H383.584L367.283 211.928C365.498 204.011 370.466 196.095 378.461 194.309C379.47 194.077 380.557 193.921 381.644 193.921Z" fill="white"/></mask><g mask="url(#mask25)"><path fill-rule="evenodd" clip-rule="evenodd" d="M372.872 255.081H425.966C433.573 255.081 439.705 261.213 439.705 268.819V291.793C439.705 299.399 433.573 305.531 425.966 305.531H372.872C365.265 305.531 359.133 299.399 359.133 291.793V268.819C359.133 261.213 365.265 255.081 372.872 255.081Z" fill="#FFC6B7"/></g><path fill-rule="evenodd" clip-rule="evenodd" d="M380.512 160.886H415.752C421.962 160.886 426.93 165.931 426.93 172.062C426.93 178.271 421.885 183.239 415.752 183.239H380.512C374.302 183.239 369.334 178.194 369.334 172.062C369.334 165.931 374.302 160.886 380.512 160.886Z" fill="#CE82FF"/><path fill-rule="evenodd" clip-rule="evenodd" d="M378.649 183.161H417.615C418.469 183.161 419.168 183.86 419.168 184.713V192.863C419.168 193.717 418.469 194.415 417.615 194.415H378.649C377.795 194.415 377.096 193.717 377.096 192.863V184.713C377.096 183.86 377.795 183.161 378.649 183.161Z" fill="#6F4EA1"/><path fill-rule="evenodd" clip-rule="evenodd" d="M381.754 282.042H414.976C417.538 282.042 419.634 284.137 419.634 286.698C419.634 289.26 417.538 291.355 414.976 291.355H381.754C379.192 291.355 377.096 289.26 377.096 286.698C377.096 284.137 379.192 282.042 381.754 282.042Z" fill="#3D3D3D"/><path fill-rule="evenodd" clip-rule="evenodd" d="M388.196 153.574H407.99C410.397 153.574 412.337 155.515 412.337 157.921C412.337 160.327 410.397 162.267 407.99 162.267H388.196C385.79 162.267 383.85 160.327 383.85 157.921C383.85 155.592 385.79 153.574 388.196 153.574Z" fill="#CE82FF"/><path opacity="0.3" fill-rule="evenodd" clip-rule="evenodd" d="M4.22774 291.756H694.059C696.388 291.756 698.328 293.619 698.328 296.025C698.328 298.353 696.465 300.293 694.059 300.293H4.22774C1.89906 300.293 -0.0415039 298.431 -0.0415039 296.025C0.0361186 293.619 1.89906 291.756 4.22774 291.756Z" fill="#AFAFAF"/><path fill-rule="evenodd" clip-rule="evenodd" d="M61.5908 89.6521C74.6314 89.6521 86.2748 97.8016 90.6993 110.065L118.178 185.816C129.588 217.327 113.287 252.099 81.7727 263.508C75.1748 265.914 68.1887 267.156 61.1251 267.156C27.825 267.156 0.734741 240.146 0.734741 206.772C0.734741 199.631 1.97669 192.646 4.46061 185.971L32.3271 110.065C36.9068 97.8016 48.5502 89.6521 61.5908 89.6521Z" fill="#A56644"/><path fill-rule="evenodd" clip-rule="evenodd" d="M53.6734 215.853H69.6636C70.7503 215.853 71.5266 216.707 71.5266 217.716V290.052C71.5266 291.138 70.6727 291.915 69.6636 291.915H53.6734C52.5867 291.915 51.8104 291.061 51.8104 290.052V217.716C51.8104 216.707 52.6643 215.853 53.6734 215.853Z" fill="#FFB59F"/><path fill-rule="evenodd" clip-rule="evenodd" d="M76.1838 166.49L94.1922 186.204C97.53 189.852 97.53 195.363 94.1922 199.011L71.8369 223.537C68.2663 227.417 62.2893 227.65 58.4082 224.158C57.2438 223.149 56.39 221.829 55.9243 220.432L44.3585 188.765L36.2081 196.837C33.7242 199.321 29.6878 199.321 27.2039 196.993C24.6424 194.587 24.4871 190.628 26.8934 188.067L46.5319 166.568C54.0613 158.341 66.7914 157.797 75.0194 165.248C75.3299 165.559 75.718 166.024 76.1838 166.49Z" fill="#FFB59F"/><path fill-rule="evenodd" clip-rule="evenodd" d="M17.4236 165.559C20.2956 164.162 23.7886 165.326 25.1858 168.198L35.8201 190.007C37.2173 192.879 36.053 196.371 33.181 197.769C30.3089 199.166 26.8159 198.001 25.4187 195.13L14.7844 173.32C13.3872 170.448 14.5516 166.956 17.4236 165.559Z" fill="#FFB59F"/><path fill-rule="evenodd" clip-rule="evenodd" d="M12.8697 158.647C17.9237 156.603 23.7503 159.088 25.7946 164.142C27.839 169.195 25.3534 175.021 20.2994 177.066C15.2454 179.11 9.41886 176.625 7.37448 171.571C5.33821 166.441 7.81575 160.692 12.8697 158.647Z" fill="#FFB59F"/><path fill-rule="evenodd" clip-rule="evenodd" d="M17.7838 146.053C19.6609 146.016 21.2131 147.584 21.1728 149.453L21.1991 162.566C21.2359 164.443 19.6679 165.995 17.7989 165.955C15.9219 165.992 14.3697 164.424 14.41 162.555L14.3837 149.442C14.4241 147.573 15.9068 146.09 17.7838 146.053Z" fill="#FFB59F"/><path fill-rule="evenodd" clip-rule="evenodd" d="M6.71731 150.353C8.16759 149.179 10.321 149.483 11.4954 150.933L19.5455 161.222C20.7199 162.672 20.4155 164.825 18.9652 166C17.5149 167.174 15.3615 166.87 14.1871 165.42L6.137 155.13C4.96261 153.68 5.26702 151.527 6.71731 150.353Z" fill="#FFB59F"/><path fill-rule="evenodd" clip-rule="evenodd" d="M61.646 159.581H61.7236C72.8236 159.581 81.8278 168.584 81.8278 179.683V232.926C81.8278 235.41 79.8096 237.506 77.2481 237.506H45.9662C43.4823 237.506 41.3865 235.488 41.3865 232.926V179.683C41.5417 168.584 50.5459 159.581 61.646 159.581Z" fill="#B15BE9"/><mask id="mask26" mask-type="alpha" maskUnits="userSpaceOnUse" x="41" y="159" width="41" height="79"><path fill-rule="evenodd" clip-rule="evenodd" d="M61.646 159.581H61.7236C72.8236 159.581 81.8278 168.584 81.8278 179.683V232.926C81.8278 235.41 79.8096 237.506 77.2481 237.506H45.9662C43.4823 237.506 41.3865 235.488 41.3865 232.926V179.683C41.5417 168.584 50.5459 159.581 61.646 159.581Z" fill="white"/></mask><g mask="url(#mask26)"><path fill-rule="evenodd" clip-rule="evenodd" d="M42.2403 158.029H82.2159C84.5446 158.029 86.4076 159.892 86.4076 162.22V190.161C86.4076 192.49 84.5446 194.352 82.2159 194.352H42.2403C39.9117 194.352 38.0487 192.49 38.0487 190.161V162.22C38.0487 159.892 39.9117 158.029 42.2403 158.029Z" fill="#CE82FF"/></g><mask id="mask27" mask-type="alpha" maskUnits="userSpaceOnUse" x="41" y="159" width="41" height="79"><path fill-rule="evenodd" clip-rule="evenodd" d="M61.646 159.581H61.7236C72.8236 159.581 81.8278 168.584 81.8278 179.683V232.926C81.8278 235.41 79.8096 237.506 77.2481 237.506H45.9662C43.4823 237.506 41.3865 235.488 41.3865 232.926V179.683C41.5417 168.584 50.5459 159.581 61.646 159.581Z" fill="white"/></mask><g mask="url(#mask27)"><path fill-rule="evenodd" clip-rule="evenodd" d="M51.3998 205.529C52.7194 205.529 53.8061 206.615 53.8061 207.935V239.446C53.8061 240.765 52.7194 241.852 51.3998 241.852C50.0802 241.852 48.9935 240.765 48.9935 239.446V207.857C48.9935 206.615 50.0802 205.529 51.3998 205.529Z" fill="#9841D1"/></g><mask id="mask28" mask-type="alpha" maskUnits="userSpaceOnUse" x="41" y="159" width="41" height="79"><path fill-rule="evenodd" clip-rule="evenodd" d="M61.646 159.581H61.7236C72.8236 159.581 81.8278 168.584 81.8278 179.683V232.926C81.8278 235.41 79.8096 237.506 77.2481 237.506H45.9662C43.4823 237.506 41.3865 235.488 41.3865 232.926V179.683C41.5417 168.584 50.5459 159.581 61.646 159.581Z" fill="white"/></mask><g mask="url(#mask28)"><path fill-rule="evenodd" clip-rule="evenodd" d="M73.2117 205.529C74.5313 205.529 75.618 206.615 75.618 207.935V239.446C75.618 240.765 74.5313 241.852 73.2117 241.852C71.8921 241.852 70.8054 240.765 70.8054 239.446V207.857C70.883 206.615 71.9698 205.529 73.2117 205.529Z" fill="#9841D1"/></g><mask id="mask29" mask-type="alpha" maskUnits="userSpaceOnUse" x="41" y="159" width="41" height="79"><path fill-rule="evenodd" clip-rule="evenodd" d="M61.646 159.581H61.7236C72.8236 159.581 81.8278 168.584 81.8278 179.683V232.926C81.8278 235.41 79.8096 237.506 77.2481 237.506H45.9662C43.4823 237.506 41.3865 235.488 41.3865 232.926V179.683C41.5417 168.584 50.5459 159.581 61.646 159.581Z" fill="white"/></mask><g mask="url(#mask29)"><path fill-rule="evenodd" clip-rule="evenodd" d="M62.3444 205.529C63.664 205.529 64.7507 206.615 64.7507 207.935V239.446C64.7507 240.765 63.664 241.852 62.3444 241.852C61.0248 241.852 59.9381 240.765 59.9381 239.446V207.857C59.9381 206.615 61.0248 205.529 62.3444 205.529Z" fill="#9841D1"/></g><path fill-rule="evenodd" clip-rule="evenodd" d="M61.0793 90.7922C75.6723 90.7922 87.5486 102.667 87.5486 117.259V133.48C87.5486 148.071 75.6723 159.946 61.0793 159.946C46.4862 159.946 34.6876 148.071 34.6876 133.48V117.259C34.6876 102.667 46.4862 90.7922 61.0793 90.7922Z" fill="#FFB59F"/><mask id="mask30" mask-type="alpha" maskUnits="userSpaceOnUse" x="34" y="90" width="54" height="70"><path fill-rule="evenodd" clip-rule="evenodd" d="M61.0793 90.7922C75.6723 90.7922 87.5486 102.667 87.5486 117.259V133.48C87.5486 148.071 75.6723 159.946 61.0793 159.946C46.4862 159.946 34.6876 148.071 34.6876 133.48V117.259C34.6876 102.667 46.4862 90.7922 61.0793 90.7922Z" fill="white"/></mask><g mask="url(#mask30)"><path fill-rule="evenodd" clip-rule="evenodd" d="M72.4898 108.255C77.2248 108.255 81.1059 112.058 81.1059 116.793V123.623C81.1059 128.357 77.3024 132.161 72.5675 132.161C67.8325 132.161 64.029 128.357 64.029 123.623V116.793C63.9514 112.136 67.8325 108.255 72.4898 108.255Z" fill="white"/></g><mask id="mask31" mask-type="alpha" maskUnits="userSpaceOnUse" x="34" y="90" width="54" height="70"><path fill-rule="evenodd" clip-rule="evenodd" d="M61.0793 90.7922C75.6723 90.7922 87.5486 102.667 87.5486 117.259V133.48C87.5486 148.071 75.6723 159.946 61.0793 159.946C46.4862 159.946 34.6876 148.071 34.6876 133.48V117.259C34.6876 102.667 46.4862 90.7922 61.0793 90.7922Z" fill="white"/></mask><g mask="url(#mask31)"><path fill-rule="evenodd" clip-rule="evenodd" d="M50.445 108.255C55.1799 108.255 58.9834 112.058 58.9834 116.793V123.623C58.9834 128.357 55.1799 132.161 50.445 132.161C45.71 132.161 41.9065 128.357 41.9065 123.623V116.793C41.9065 112.136 45.71 108.255 50.445 108.255Z" fill="white"/></g><mask id="mask32" mask-type="alpha" maskUnits="userSpaceOnUse" x="34" y="90" width="54" height="70"><path fill-rule="evenodd" clip-rule="evenodd" d="M61.0793 90.7922C75.6723 90.7922 87.5486 102.667 87.5486 117.259V133.48C87.5486 148.071 75.6723 159.946 61.0793 159.946C46.4862 159.946 34.6876 148.071 34.6876 133.48V117.259C34.6876 102.667 46.4862 90.7922 61.0793 90.7922Z" fill="white"/></mask><g mask="url(#mask32)"><path fill-rule="evenodd" clip-rule="evenodd" d="M61.4673 111.282C61.9331 111.282 62.3212 111.437 62.7093 111.593C63.0974 111.748 63.4079 112.136 63.5631 112.446C63.796 112.835 63.8736 113.223 63.8736 113.688V134.566C63.8736 135.032 63.7184 135.42 63.5631 135.808C63.3303 136.196 63.0198 136.507 62.7093 136.662C62.3212 136.895 61.9331 136.973 61.4673 136.973C61.0016 136.973 60.6135 136.817 60.2254 136.662C59.8373 136.429 59.5268 136.119 59.3715 135.808C59.1387 135.42 59.061 135.032 59.061 134.566V113.688C59.061 113.223 59.2163 112.835 59.3715 112.446C59.6044 112.058 59.9149 111.748 60.2254 111.593C60.6135 111.437 61.0016 111.282 61.4673 111.282Z" fill="#E47A65"/></g><mask id="mask33" mask-type="alpha" maskUnits="userSpaceOnUse" x="34" y="90" width="54" height="70"><path fill-rule="evenodd" clip-rule="evenodd" d="M61.0793 90.7922C75.6723 90.7922 87.5486 102.667 87.5486 117.259V133.48C87.5486 148.071 75.6723 159.946 61.0793 159.946C46.4862 159.946 34.6876 148.071 34.6876 133.48V117.259C34.6876 102.667 46.4862 90.7922 61.0793 90.7922Z" fill="white"/></mask><g mask="url(#mask33)"><path fill-rule="evenodd" clip-rule="evenodd" d="M61.0793 131.85H61.8555C63.8737 131.85 65.5038 133.48 65.5038 135.498C65.5038 137.516 63.8737 139.146 61.8555 139.146H61.0793C59.0611 139.146 57.431 137.516 57.431 135.498C57.5087 133.48 59.1387 131.85 61.0793 131.85Z" fill="#E47A65"/></g><mask id="mask34" mask-type="alpha" maskUnits="userSpaceOnUse" x="34" y="90" width="54" height="70"><path fill-rule="evenodd" clip-rule="evenodd" d="M61.0793 90.7922C75.6723 90.7922 87.5486 102.667 87.5486 117.259V133.48C87.5486 148.071 75.6723 159.946 61.0793 159.946C46.4862 159.946 34.6876 148.071 34.6876 133.48V117.259C34.6876 102.667 46.4862 90.7922 61.0793 90.7922Z" fill="white"/></mask><g mask="url(#mask34)"><path fill-rule="evenodd" clip-rule="evenodd" d="M70.6662 114.735C68.648 114.735 67.0179 116.365 67.0179 118.383V122.962C67.0179 124.98 68.648 126.61 70.6662 126.61C72.6844 126.61 74.3145 124.98 74.3145 122.962V118.383C74.2368 116.365 72.6068 114.735 70.6662 114.735Z" fill="#4B4B4B"/><path fill-rule="evenodd" clip-rule="evenodd" d="M52.3472 114.735C54.3654 114.735 55.9955 116.365 55.9955 118.383V122.962C55.9955 124.98 54.3654 126.61 52.3472 126.61C50.329 126.61 48.699 124.98 48.699 122.962V118.383C48.7766 116.365 50.329 114.735 52.3472 114.735Z" fill="#4B4B4B"/></g><mask id="mask35" mask-type="alpha" maskUnits="userSpaceOnUse" x="34" y="90" width="54" height="70"><path fill-rule="evenodd" clip-rule="evenodd" d="M61.0793 90.7922C75.6723 90.7922 87.5486 102.667 87.5486 117.259V133.48C87.5486 148.071 75.6723 159.946 61.0793 159.946C46.4862 159.946 34.6876 148.071 34.6876 133.48V117.259C34.6876 102.667 46.4862 90.7922 61.0793 90.7922Z" fill="white"/></mask><g mask="url(#mask35)"><path fill-rule="evenodd" clip-rule="evenodd" d="M40.1989 64.1704H82.5032C83.3571 64.1704 84.0557 64.8689 84.0557 65.7227V119.665C84.0557 120.518 83.3571 121.217 82.5032 121.217H40.1989C39.3451 121.217 38.6465 120.518 38.6465 119.665V65.7227C38.7241 64.8689 39.3451 64.1704 40.1989 64.1704Z" fill="#A56644"/></g><mask id="mask36" mask-type="alpha" maskUnits="userSpaceOnUse" x="34" y="90" width="54" height="70"><path fill-rule="evenodd" clip-rule="evenodd" d="M61.0793 90.7922C75.6723 90.7922 87.5486 102.667 87.5486 117.259V133.48C87.5486 148.071 75.6723 159.946 61.0793 159.946C46.4862 159.946 34.6876 148.071 34.6876 133.48V117.259C34.6876 102.667 46.4862 90.7922 61.0793 90.7922Z" fill="white"/></mask><g mask="url(#mask36)"><path d="M52.7737 138.913C54.0933 142.639 56.9653 144.579 61.3898 144.579" stroke="#EC8B75" stroke-width="3.4264" stroke-linecap="round" stroke-linejoin="round"/></g><mask id="mask37" mask-type="alpha" maskUnits="userSpaceOnUse" x="34" y="90" width="54" height="70"><path fill-rule="evenodd" clip-rule="evenodd" d="M61.0793 90.7922C75.6723 90.7922 87.5486 102.667 87.5486 117.259V133.48C87.5486 148.071 75.6723 159.946 61.0793 159.946C46.4862 159.946 34.6876 148.071 34.6876 133.48V117.259C34.6876 102.667 46.4862 90.7922 61.0793 90.7922Z" fill="white"/></mask><g mask="url(#mask37)"/><path fill-rule="evenodd" clip-rule="evenodd" d="M50.9565 282.911H72.8461C75.4076 282.911 77.5034 285.007 77.5034 287.568C77.5034 290.129 75.4076 292.225 72.8461 292.225H50.9565C48.395 292.225 46.2992 290.129 46.2992 287.568C46.3768 285.007 48.395 282.911 50.9565 282.911Z" fill="#4B4B4B"/><path d="M71.5671 251.515H51.7736L51.7726 270.919H71.5662L71.5671 251.515Z" fill="white"/><path d="M71.5532 267.923H51.7596L51.7587 286.162H71.5523L71.5532 267.923Z" fill="#4B4B4B"/><path d="M34.7683 126.216C31.5238 125.407 28.2379 127.381 27.429 130.625C26.6201 133.87 28.5946 137.155 31.8391 137.964C35.0837 138.773 38.3696 136.799 39.1785 133.554C39.9873 130.31 38.0129 127.025 34.7683 126.216Z" fill="#FFB59F"/><path d="M90.5697 126.225C87.3252 125.416 84.0393 127.391 83.2304 130.635C82.4215 133.879 84.396 137.165 87.6405 137.973C90.885 138.782 94.171 136.808 94.9799 133.564C95.7887 130.319 93.8142 127.034 90.5697 126.225Z" fill="#FFB59F"/><path fill-rule="evenodd" clip-rule="evenodd" d="M61.5132 77.075C76.8048 77.075 89.1468 89.4156 89.1468 104.706C89.1468 107.112 87.2062 109.052 84.7999 109.052H38.304C35.8977 109.052 33.9572 107.112 33.9572 104.706C33.9572 89.4156 46.2991 77.075 61.5132 77.075Z" fill="#78C800"/><path fill-rule="evenodd" clip-rule="evenodd" d="M33.7243 101.291H89.3797C90.9321 101.291 92.3293 102.377 92.7175 103.929L94.037 109.75C94.4252 111.613 93.3384 113.398 91.4755 113.786C91.2426 113.864 90.9321 113.864 90.6993 113.864H32.3271C30.4642 113.864 28.9117 112.312 28.9117 110.449C28.9117 110.216 28.9117 109.906 28.9894 109.673L30.3089 103.852C30.7747 102.377 32.1719 101.291 33.7243 101.291Z" fill="#58A700"/><path fill-rule="evenodd" clip-rule="evenodd" d="M44.1258 77.075H63.9972C66.4034 77.075 68.344 79.0153 68.344 81.4213C68.344 83.8274 66.4034 85.7677 63.9972 85.7677H44.1258C41.7195 85.7677 39.7789 83.8274 39.7789 81.4213C39.7789 79.0153 41.7195 77.075 44.1258 77.075Z" fill="#78C800"/></svg>