<svg xmlns="http://www.w3.org/2000/svg" xmlns:xlink="http://www.w3.org/1999/xlink" width="212" height="212" viewBox="0 0 212 212" version="1.1"><title>tea</title><desc>Created with Sketch.</desc><g id="tea" stroke="none" stroke-width="1" fill="none" fill-rule="evenodd"><path d="M168.011648,64.5895924 C174.613235,64.5895924 179.964878,69.9412359 179.964878,76.5428227 C179.964878,78.1554454 179.638571,79.7513941 179.005598,81.2345994 L168.61536,105.581402 C166.58901,110.329625 161.924658,113.410408 156.762128,113.410408 C152.218537,113.410408 148.53523,109.7271 148.53523,105.18351 C148.53523,105.09006 148.536822,104.996617 148.540006,104.903222 L149.297705,82.6764573 C149.641574,72.5892003 157.918531,64.5895924 168.011648,64.5895924 Z" id="Rectangle-40" stroke="#FFC800" stroke-width="9"/><g id="Group-2" transform="translate(37.000000, 44.000000)"><path d="M3,8 L127,8 C120.965867,9.31639957 117.965867,19.6497329 118,39 C117.986786,46.4148892 117.129423,54.0565655 115.42791,61.9250287 C110.497176,84.726613 90.3286173,101 67,101 C43.6780021,101 23.4137503,84.9712093 18.0434514,62.275935 C16.1459198,54.256823 15.131436,46.498178 15,39 C15.3329662,19.8080795 11.3329662,9.47474619 3,8 Z" id="Rectangle-15" fill="#D2E4E8"/><rect id="Rectangle" fill="#FFFFFF" x="64.3565217" y="33.1204819" width="31.4" height="34.0361446" rx="6.8"/><rect id="Rectangle-2" fill="#FFC800" x="0" y="2" width="130" height="10" rx="5"/><rect id="Rectangle-3" fill="#FFFFFF" x="78.0086957" y="0" width="4.09565217" height="46.2891566" rx="2.04"/></g><path d="M61.9126656,151 L144.455864,151 C146.064484,151 147.368528,152.304044 147.368528,153.912664 C147.368528,154.698863 147.0507,155.451672 146.487277,156 L142.805427,159.583208 C141.871948,160.491678 140.620794,161 139.318219,161 L67.0503111,161 C65.7477363,161 64.4965823,160.491678 63.5631029,159.583208 L59.8812525,156 C58.7284486,154.878082 58.703411,153.034055 59.8253295,151.881251 C60.3736574,151.317828 61.1264667,151 61.9126656,151 Z" id="Rectangle-4" fill="#D2E4E8"/><path d="M19,137 L188,137 C188,146.388841 180.388841,154 171,154 L36,154 C26.6111593,154 19,146.388841 19,137 L19,137 L19,137 Z" id="Rectangle-24" fill="#D2E4E8"/><rect id="Rectangle-2" fill="#FFC800" x="15" y="133" width="176" height="10" rx="5"/></g></svg>