<svg xmlns="http://www.w3.org/2000/svg" xmlns:xlink="http://www.w3.org/1999/xlink" width="212" height="212" viewBox="0 0 212 212" version="1.1"><title>water</title><desc>Created with Sketch.</desc><g id="water" stroke="none" stroke-width="1" fill="none" fill-rule="evenodd"><g id="Group-25" transform="translate(61.000000, 9.000000)"><rect id="Rectangle-74" fill="#BBF2FF" x="5.93478261" y="82.0268456" width="78.6208827" height="111.973154" rx="10.407936"/><path d="M42.602754,28.6442953 L49.0519093,28.6442953 C68.9592873,28.6442953 85.7791756,43.4082652 88.3599404,63.147651 L90.7573803,81.484848 C91.7820048,89.3218496 86.259482,96.5056169 78.4224804,97.5302414 C77.8073361,97.6106665 77.1876132,97.6510067 76.5672337,97.6510067 L15.0874297,97.6510067 C7.18373122,97.6510067 0.776517677,91.2437932 0.776517677,83.3400947 C0.776517677,82.7197152 0.8168579,82.0999923 0.89728303,81.484848 L3.29472299,63.147651 C5.87548778,43.4082652 22.6953761,28.6442953 42.602754,28.6442953 Z" id="Rectangle-31" fill="#BBF2FF"/><path d="M79.0715731,65.1006711 L81.1631877,81.0916537 C81.7220737,85.3663818 78.7097886,89.2848004 74.4350604,89.8436864 C74.0995272,89.8875547 73.7614965,89.9095584 73.4231077,89.9095584 L18.2318954,89.9095584 C13.9207872,89.9095584 10.4259434,86.4147147 10.4259434,82.1036064 C10.4259434,81.7652176 10.4479472,81.4271869 10.4918154,81.0916537 L12.5825731,65.1006711 L79.0715731,65.1006711 Z" id="Combined-Shape" fill="#47D7FF"/><polygon id="Rectangle-36" fill="#BBF2FF" points="26.5566535 18.2281879 65.2226614 18.2281879 65.2226614 40.3624161 26.5566535 40.3624161"/><rect id="Rectangle-32" fill="#1899D6" x="26.5566535" y="0" width="38.6660079" height="20.8322148" rx="3.902976"/><path d="M20.1608191,82.0268456 L70.3296288,82.0268456 C73.203701,82.0268456 75.5335968,84.3567415 75.5335968,87.2308136 L75.5335968,178.379925 C75.5335968,181.253997 73.203701,183.583893 70.3296288,183.583893 L20.1608191,183.583893 C17.286747,183.583893 14.9568511,181.253997 14.9568511,178.379925 L14.9568511,87.2308136 C14.9568511,84.3567415 17.286747,82.0268456 20.1608191,82.0268456 Z" id="Rectangle-34" fill="#47D7FF"/><path d="M25.3041618,15.6241611 L66.4751531,15.6241611 C68.6307072,15.6241611 70.3781291,17.371583 70.3781291,19.5271371 L70.3781291,19.5332656 C70.3781291,21.6888197 68.6307072,23.4362416 66.4751531,23.4362416 L25.3041618,23.4362416 C23.1486076,23.4362416 21.4011858,21.6888197 21.4011858,19.5332656 L21.4011858,19.5271371 C21.4011858,17.371583 23.1486076,15.6241611 25.3041618,15.6241611 Z" id="Rectangle-33" fill="#BBF2FF"/><rect id="Rectangle-37" fill="#FFFFFF" x="29.1343874" y="37.7583893" width="33.5105402" height="14.3221477" rx="7.16107383"/></g></g></svg>